<svg xmlns="http://www.w3.org/2000/svg" viewBox="0 0 64 64" id="decoration">
  <path fill="#830302" d="M12.21 20.43l23.2 7.48L15 21.33C14.07 21 13.12 20.77 12.21 20.43zM36.39 24.33a4.12 4.12 0 01.43 2.46L11.72 18.7a4.21 4.21 0 014.17-2.18 10.7 10.7 0 012 .56l5 1.6 7.75 2.5C32.66 21.84 35.32 22.24 36.39 24.33z"></path>
  <path fill="#830302" d="M36.82 26.79L11.72 18.7a4.23 4.23 0 014.34-2.16 13.64 13.64 0 012.07.61L23 18.71l8.77 2.83c.73.23 1.48.45 2.2.71A4.25 4.25 0 0136.82 26.79zM35.41 27.91l-2.25 1.16L13.37 22.69c-.38-.75-.75-1.52-1.16-2.26z"></path>
  <path fill="#830302" d="M35.41,27.91l-2.25,1.16L13.37,22.69c-.38-.75-.75-1.52-1.16-2.26Z"></path>
  <polygon fill="#830302" points="18.72 48.64 13.66 47.01 16.36 28.69 27.22 32.19 18.72 48.64"></polygon>
  <path fill="#830302" d="M13.42,24.29,8.75,48.89,21.6,53l10.58-22.7ZM19.76,49.9c-.46.88-2.3-.08-2.93-.28-1.27-.41-2.55-.79-3.81-1.23-.66-.23-1-.55-.9-1.27s.23-1.51.34-2.26l2.32-15.7A9,9,0,0,1,15,27.62c.31-.93,1.06-.59,1.75-.37l7.64,2.46,3.29,1.06c.69.23,1.54.35,1.27,1.33a7.89,7.89,0,0,1-.67,1.29l-1.53,3Z"></path>
  <polygon fill="#830302" points="16.36 28.69 27.22 32.19 18.72 48.64 13.66 47.01 16.36 28.69"></polygon>
  <path fill="#830302" d="M13.42 24.29L8.75 48.89 21.6 53l10.58-22.7zM19.76 49.9c-.46.88-2.3-.08-2.93-.28-1.27-.41-2.55-.79-3.81-1.23-.66-.23-1-.55-.9-1.27s.23-1.51.34-2.26l2.32-15.7A9 9 0 0115 27.62c.31-.93 1.06-.59 1.75-.37l7.64 2.46 3.29 1.06c.69.23 1.54.35 1.27 1.33a7.89 7.89 0 01-.67 1.29l-1.53 3zM23.41 55.19l-.55 1.71c-5-1.6-10.07-3.25-15.11-4.87L5.48 51.3 6 49.59l14.81 4.77z"></path>
  <path fill="#830302" d="M23.41 55.19l-.55 1.71c-5-1.6-10.07-3.25-15.11-4.87L5.48 51.3 6 49.59l14.81 4.77zM20.83 57.82c-.5 1.61-1.5 1.41-2.76 1l-4.82-1.55L8.36 55.69c-1.3-.42-2.3-.77-1.78-2.46z"></path>
  <path fill="#830302" d="M20.83 57.82c-.5 1.61-1.5 1.41-2.76 1l-4.82-1.55L8.36 55.69c-1.3-.42-2.3-.77-1.78-2.46zM28 16.93l-.53 1.64-3.27-1.06A6.66 6.66 0 0125 15.29 1.72 1.72 0 0128 16.93z"></path>
  <path fill="#830302" d="M28 16.93l-.53 1.64-3.27-1.06A6.66 6.66 0 0125 15.29 1.72 1.72 0 0128 16.93zM54.93 17.11l-14.32 4.7c-.34-2.13 1.65-2.7 3.22-3.22L47 17.54l3.29-1.08C51.91 15.94 53.92 15.14 54.93 17.11z"></path>
  <path fill="#830302" d="M54.93,17.11l-14.32,4.7c-.34-2.13,1.65-2.7,3.22-3.22L47,17.54l3.29-1.08C51.91,15.94,53.92,15.14,54.93,17.11Z"></path>
  <polygon fill="#830302" points="47.77 19.46 40.61 21.81 40.61 21.8 47.77 19.46"></polygon>
  <polygon fill="#830302" points="54.69 17.98 53.97 19.39 42.73 23.08 41.33 22.36 54.69 17.98"></polygon>
  <polygon fill="#830302" points="54.69 17.98 53.97 19.39 42.73 23.08 41.33 22.36 54.69 17.98"></polygon>
  <polygon fill="#830302" points="50.95 34.15 46.04 24.75 52.3 22.7 53.9 33.18 50.95 34.15"></polygon>
  <path fill="#830302" d="M54,20.19,43.22,23.71l6.11,12.93,7.36-2.41Zm.49,13.6A17.4,17.4,0,0,1,51,34.92c-.73.07-1-1-1.31-1.59l-4.19-8a2.61,2.61,0,0,1-.32-.62c-.07-.55.37-.58.79-.72l4.43-1.45c.58-.19,2.23-1.08,2.58-.35a11,11,0,0,1,.45,2.94l.84,5.46C54.32,31,55.05,33.61,54.44,33.79Z"></path>
  <polygon fill="#830302" points="52.3 22.7 53.9 33.18 50.95 34.15 46.04 24.75 52.3 22.7"></polygon>
  <path fill="#830302" d="M54 20.19L43.22 23.71l6.11 12.93 7.36-2.41zm.49 13.6A17.4 17.4 0 0151 34.92c-.73.07-1-1-1.31-1.59l-4.19-8a2.61 2.61 0 01-.32-.62c-.07-.55.37-.58.79-.72l4.43-1.45c.58-.19 2.23-1.08 2.58-.35a11 11 0 01.45 2.94l.84 5.46C54.32 31 55.05 33.61 54.44 33.79zM58.56 35.58q-5 1.68-9.94 3.26l-.35-1.06c3.31-1.09 6.62-2.19 9.94-3.26z"></path>
  <path fill="#830302" d="M58.56 35.58q-5 1.68-9.94 3.26l-.35-1.06c3.31-1.09 6.62-2.19 9.94-3.26zM57.86 36.6c.12 1.66-2.54 2-3.69 2.39s-3.48 1.66-4.38.26z"></path>
  <path fill="#830302" d="M57.86 36.6c.12 1.66-2.54 2-3.69 2.39s-3.48 1.66-4.38.26zM47.87 16.48l-1.95.64c-.25-.76-.76-1.92.35-2.28S47.63 15.73 47.87 16.48z"></path>
  <path fill="#830302" d="M47.87 16.48l-1.95.64c-.25-.76-.76-1.92.35-2.28S47.63 15.73 47.87 16.48zM32 9.34A84.16 84.16 0 018.71 6.05C7.8 5.78 6.89 5.5 6 5.21 5.48 5 3.63 4.73 3.51 4.09 3.31 3 5 3.82 5.38 4c1 .33 2 .65 3 .94a81.48 81.48 0 0011 2.48 83.34 83.34 0 0022.42.39A82.34 82.34 0 0053 5.63Q55.77 4.91 58.45 4c.44-.15 2-1 2 0 .06.74-1.76 1-2.29 1.19A84.13 84.13 0 0132 9.34z"></path>
  <path fill="#830302" d="M27.57 8.71v4.73a3.5 3.5 0 00-1-.25V10.36c0-.47 0-1 0-1.43C26.62 8.3 27.57 7.84 27.57 8.71zM46.52 7.63V14a2 2 0 00-.75.19V10.34c0-.75 0-1.51 0-2.26a1.62 1.62 0 010-.44C45.9 7.28 46.52 7.05 46.52 7.63z"></path>
  <polygon fill="#830302" points="27.22 32.19 18.72 48.64 13.66 47.01 16.36 28.69 27.22 32.19"></polygon>
  <polygon fill="#830302" points="53.9 33.18 50.95 34.15 46.04 24.75 52.3 22.7 53.9 33.18"></polygon>
  <polygon fill="#fbc104" points="27.22 32.19 18.72 48.64 13.66 47.01 16.36 28.69 27.22 32.19"></polygon>
  <polygon fill="#fbc104" points="53.9 33.18 50.95 34.15 46.04 24.75 52.3 22.7 53.9 33.18"></polygon>
</svg>
