<?xml version="1.0" encoding="iso-8859-1"?>
<!-- Uploaded to: SVG Repo, www.svgrepo.com, Generator: SVG Repo Mixer Tools -->
<svg height="800px" width="800px" version="1.1" id="Layer_1" xmlns="http://www.w3.org/2000/svg" xmlns:xlink="http://www.w3.org/1999/xlink" 
	 viewBox="0 0 512 512" xml:space="preserve">
<circle style="fill:#3AB0B0;" cx="260.657" cy="257.41" r="217.204"/>
<circle style="fill:#40CACF;" cx="253.939" cy="258.529" r="187.983"/>
<path style="fill:#F9C900;" d="M484.932,177.145L484.932,177.145c-6.995,6.995-18.338,6.995-25.333,0L326.595,44.142
	c-6.995-6.995-6.995-18.338,0-25.333l0,0c6.995-6.995,18.338-6.995,25.333,0l133.003,133.003
	C491.928,158.807,491.928,170.148,484.932,177.145z"/>
<path style="fill:#F9AA0C;" d="M423.066,83.448L423.066,83.448c-2.561,9.556-12.383,15.228-21.94,12.667L219.44,47.432
	c-9.556-2.561-15.228-12.383-12.667-21.94l0,0c2.561-9.556,12.383-15.228,21.94-12.667l181.686,48.683
	C419.956,64.069,425.627,73.891,423.066,83.448z"/>
<path style="fill:#F9C900;" d="M295.069,16.536L295.069,16.536c2.561,9.556-3.11,19.379-12.667,21.94L100.717,87.157
	c-9.556,2.561-19.379-3.11-21.94-12.667l0,0c-2.561-9.556,3.11-19.379,12.667-21.94L273.13,3.868
	C282.686,1.308,292.508,6.979,295.069,16.536z"/>
<path style="fill:#F9AA0C;" d="M171.442,27.764L171.442,27.764c6.995,6.995,6.995,18.338,0,25.333L38.439,186.102
	c-6.995,6.995-18.338,6.995-25.333,0l0,0c-6.995-6.995-6.995-18.338,0-25.333L146.107,27.764
	C153.103,20.769,164.445,20.769,171.442,27.764z"/>
<path style="fill:#F9C900;" d="M71.238,97.237L71.238,97.237c9.556,2.561,15.228,12.383,12.667,21.94L35.222,300.863
	c-2.561,9.556-12.383,15.228-21.94,12.667l0,0c-9.556-2.561-15.228-12.383-12.667-21.94l48.683-181.686
	C51.858,100.347,61.681,94.677,71.238,97.237z"/>
<path style="fill:#F9AA0C;" d="M15.882,212.477L15.882,212.477c9.556-2.561,19.379,3.11,21.94,12.667l48.683,181.686
	c2.561,9.556-3.11,19.379-12.667,21.94l0,0c-9.556,2.561-19.379-3.11-21.94-12.667L3.216,234.417
	C0.655,224.86,6.326,215.038,15.882,212.477z"/>
<path style="fill:#F9C900;" d="M22.061,332.298L22.061,332.298c6.995-6.995,18.338-6.995,25.333,0l133.003,133.003
	c6.995,6.995,6.995,18.338,0,25.333l0,0c-6.995,6.995-18.338,6.995-25.333,0L22.061,357.633
	C15.066,350.636,15.066,339.295,22.061,332.298z"/>
<path style="fill:#F9AA0C;" d="M91.534,437.509L91.534,437.509c2.561-9.556,12.383-15.228,21.94-12.667l181.686,48.683
	c9.556,2.561,15.228,12.383,12.667,21.94l0,0c-2.561,9.556-12.383,15.228-21.94,12.667l-181.686-48.683
	C94.644,456.888,88.973,447.065,91.534,437.509z"/>
<path style="fill:#F9C900;" d="M206.774,482.6L206.774,482.6c-2.561-9.556,3.11-19.379,12.667-21.94l181.686-48.683
	c9.556-2.561,19.379,3.11,21.94,12.667l0,0c2.561,9.556-3.11,19.379-12.667,21.94l-181.686,48.683
	C219.157,497.828,209.335,492.157,206.774,482.6z"/>
<path style="fill:#F9AA0C;" d="M343.158,499.593L343.158,499.593c-6.995-6.995-6.995-18.338,0-25.333l133.003-133.003
	c6.995-6.995,18.338-6.995,25.333,0l0,0c6.995,6.995,6.995,18.338,0,25.333L368.493,499.593
	C361.496,506.588,350.155,506.588,343.158,499.593z"/>
<path style="fill:#F9C900;" d="M440.763,428.769L440.763,428.769c-9.556-2.561-15.228-12.383-12.667-21.94l48.683-181.686
	c2.561-9.556,12.383-15.228,21.94-12.667l0,0c9.556,2.561,15.228,12.383,12.667,21.94l-48.683,181.686
	C460.142,425.659,450.319,431.33,440.763,428.769z"/>
<path style="fill:#F9AA0C;" d="M498.521,291.59l-29.334-109.477c-3.511-0.609-6.877-2.257-9.588-4.969l-39.388-39.388
	l43.704,163.106c2.561,9.557,12.383,15.228,21.94,12.667l0,0C495.411,310.969,501.082,301.146,498.521,291.59z"/>
<path style="fill:#F1EDE8;" d="M117.17,139.854c23.493-37.818,98.953-85.079,136.772-61.586s23.672,108.844,0.179,146.661
	s-73.195,49.431-111.013,25.938S93.677,177.671,117.17,139.854z"/>
<path style="fill:#E3DCD2;" d="M167.879,244.832c-37.818-23.493-49.431-73.195-25.937-111.013
	c14.292-23.007,47.817-49.507,80.399-61.446c-38.702,4.014-87.177,38.517-105.171,67.48c-23.493,37.818-11.88,87.52,25.938,111.013
	c23.037,14.311,50.475,15.574,73.722,5.843C200.242,258.046,183.099,254.287,167.879,244.832z"/>
<g>
	<path style="fill:#E05161;" d="M223.772,132.695c-1.659,0-3.335-0.49-4.8-1.513l-0.918-0.64c-3.802-2.655-4.734-7.89-2.079-11.692
		c2.656-3.802,7.89-4.733,11.692-2.079l0.918,0.64c3.802,2.655,4.734,7.89,2.079,11.692
		C229.033,131.442,226.423,132.695,223.772,132.695z"/>
	<path style="fill:#E05161;" d="M253.136,153.222c-1.663,0-3.341-0.492-4.806-1.517l-0.917-0.642
		c-3.8-2.659-4.726-7.894-2.067-11.694s7.895-4.726,11.694-2.067l0.917,0.642c3.801,2.659,4.726,7.894,2.067,11.694
		C258.39,151.973,255.784,153.222,253.136,153.222z"/>
	<path style="fill:#E05161;" d="M194.408,112.169c-1.661,0-3.34-0.492-4.805-1.516l-0.918-0.642
		c-3.801-2.658-4.727-7.893-2.07-11.693c2.657-3.801,7.893-4.728,11.693-2.07l0.918,0.642c3.801,2.658,4.727,7.893,2.07,11.693
		C199.664,110.919,197.056,112.169,194.408,112.169z"/>
	<path style="fill:#E05161;" d="M192.982,176.743c-1.663,0-3.341-0.492-4.806-1.517l-0.917-0.642
		c-3.8-2.659-4.726-7.894-2.067-11.694c2.659-3.801,7.895-4.726,11.694-2.067l0.917,0.642c3.8,2.659,4.726,7.894,2.067,11.694
		C198.236,175.493,195.63,176.743,192.982,176.743z"/>
	<path style="fill:#E05161;" d="M222.347,197.269c-1.66,0-3.336-0.49-4.801-1.515l-0.917-0.64c-3.802-2.655-4.731-7.89-2.076-11.692
		c2.657-3.802,7.891-4.733,11.692-2.076l0.917,0.64c3.802,2.655,4.731,7.89,2.076,11.692
		C227.606,196.017,224.997,197.269,222.347,197.269z"/>
	<path style="fill:#E05161;" d="M163.618,156.216c-1.661,0-3.34-0.492-4.805-1.516l-0.918-0.642
		c-3.801-2.658-4.727-7.893-2.07-11.693c2.658-3.802,7.893-4.728,11.693-2.07l0.918,0.642c3.801,2.658,4.727,7.893,2.07,11.693
		C168.874,154.965,166.267,156.216,163.618,156.216z"/>
	<path style="fill:#E05161;" d="M162.192,220.789c-1.663,0-3.341-0.492-4.806-1.517l-0.917-0.642
		c-3.8-2.659-4.726-7.894-2.067-11.694c2.659-3.801,7.895-4.726,11.694-2.067l0.917,0.642c3.8,2.659,4.726,7.894,2.067,11.694
		C167.447,219.54,164.84,220.789,162.192,220.789z"/>
	<path style="fill:#E05161;" d="M191.556,241.316c-1.661,0-3.34-0.492-4.805-1.516l-0.918-0.642
		c-3.801-2.658-4.727-7.893-2.07-11.693c2.657-3.802,7.892-4.728,11.693-2.07l0.918,0.642c3.801,2.658,4.727,7.893,2.07,11.693
		C196.813,240.066,194.205,241.316,191.556,241.316z"/>
	<path style="fill:#E05161;" d="M132.828,200.263c-1.662,0-3.34-0.492-4.805-1.516l-0.918-0.642
		c-3.801-2.658-4.727-7.893-2.07-11.693s7.892-4.729,11.693-2.07l0.918,0.642c3.801,2.658,4.727,7.893,2.07,11.693
		C138.084,199.012,135.476,200.263,132.828,200.263z"/>
</g>
<path style="fill:#F1EDE8;" d="M284.392,283.666c-16.907-40.548-12.219-127.994,27.634-144.611s99.781,43.885,116.688,84.433
	s-1.694,86.89-41.548,103.507C347.313,343.612,301.298,324.213,284.392,283.666z"/>
<path style="fill:#E3DCD2;" d="M428.713,223.488c-14.66-35.16-61.666-85.313-99.885-87.189
	c31.498,15.456,62.976,52.328,74.492,79.948c16.907,40.548-1.694,86.89-41.548,103.507c-12.42,5.178-25.436,6.856-37.985,5.491
	c19.348,9.243,42.229,10.569,63.377,1.751C427.019,310.377,445.621,264.036,428.713,223.488z"/>
<g>
	<path style="fill:#90BF2C;" d="M347.97,246.319c-3.175,0-6.214-1.809-7.63-4.882c-1.941-4.212-0.103-9.2,4.108-11.142l1.017-0.469
		c4.213-1.94,9.201-0.104,11.142,4.108c1.941,4.212,0.103,9.2-4.108,11.142l-1.017,0.469
		C350.344,246.069,349.147,246.319,347.97,246.319z"/>
	<path style="fill:#90BF2C;" d="M336.716,221.919c-3.175,0-6.214-1.809-7.63-4.882l-7.502-16.267
		c-1.941-4.212-0.103-9.201,4.108-11.142c4.214-1.94,9.201-0.103,11.142,4.108l7.502,16.267
		C346.852,215.46,342.754,221.919,336.716,221.919z"/>
	<path style="fill:#90BF2C;" d="M323.655,234.861c-1.199,0-2.417-0.258-3.574-0.804l-16.204-7.637
		c-4.195-1.977-5.993-6.981-4.016-11.175c1.978-4.195,6.98-5.994,11.175-4.016l16.204,7.637c4.195,1.977,5.993,6.981,4.016,11.175
		C329.823,233.079,326.804,234.861,323.655,234.861z"/>
	<path style="fill:#90BF2C;" d="M304.655,257.73c-3.722,0-7.121-2.492-8.114-6.26c-1.182-4.484,1.495-9.078,5.98-10.259
		l17.323-4.565c4.49-1.187,9.077,1.496,10.259,5.98s-1.495,9.078-5.98,10.259L306.8,257.45
		C306.082,257.639,305.364,257.73,304.655,257.73z"/>
	<path style="fill:#90BF2C;" d="M322.12,282.896c-6.702,0-10.696-7.801-6.851-13.243l10.335-14.631
		c2.675-3.787,7.915-4.69,11.703-2.014c3.788,2.676,4.689,7.916,2.014,11.703l-10.335,14.631
		C327.349,281.658,324.754,282.896,322.12,282.896z"/>
	<path style="fill:#90BF2C;" d="M351.675,290.945c-4.321,0-7.993-3.315-8.358-7.7l-1.488-17.851c-0.386-4.622,3.049-8.68,7.67-9.065
		c4.621-0.408,8.68,3.049,9.065,7.67l1.488,17.851C360.456,286.685,356.523,290.945,351.675,290.945z"/>
	<path style="fill:#90BF2C;" d="M379.503,278.114c-2.161,0-4.319-0.829-5.962-2.484l-12.616-12.719
		c-3.266-3.292-3.244-8.609,0.049-11.875c3.291-3.265,8.608-3.244,11.875,0.049l12.616,12.719
		C390.603,268.983,386.837,278.114,379.503,278.114z"/>
	<path style="fill:#90BF2C;" d="M392.573,250.404c-0.256,0-0.515-0.012-0.776-0.036l-17.84-1.635
		c-4.618-0.423-8.019-4.51-7.595-9.128c0.423-4.617,4.496-8.022,9.128-7.595l17.84,1.635c4.618,0.423,8.019,4.51,7.595,9.128
		C400.527,247.129,396.865,250.404,392.573,250.404z"/>
	<path style="fill:#90BF2C;" d="M370.048,230.996c-2.659,0-5.276-1.261-6.906-3.611c-2.645-3.81-1.7-9.042,2.111-11.687
		l14.717-10.214c3.809-2.645,9.043-1.7,11.686,2.11c2.645,3.81,1.7,9.042-2.11,11.687l-14.717,10.214
		C373.369,230.51,371.701,230.996,370.048,230.996z"/>
	<path style="fill:#90BF2C;" d="M355.033,220.392c-0.731,0-1.473-0.096-2.212-0.298c-4.475-1.219-7.114-5.834-5.896-10.308
		l4.708-17.285c1.22-4.476,5.844-7.111,10.308-5.896c4.475,1.219,7.114,5.834,5.896,10.308l-4.708,17.285
		C362.111,217.936,358.727,220.392,355.033,220.392z"/>
</g>
<path style="fill:#F1EDE8;" d="M328.177,376.725c9.152-45.332-64.636-94.717-106.525-103.173
	c-43.267-8.735-85.575,19.359-94.311,62.627c-8.735,43.267,19.359,85.576,62.627,94.311
	C231.857,438.947,319.025,422.058,328.177,376.725z"/>
<path style="fill:#E3DCD2;" d="M205.079,413.168c-43.267-8.735-71.362-51.044-62.627-94.311
	c2.034-10.074,5.907-19.311,11.169-27.466c-13.05,11.208-22.621,26.658-26.281,44.788c-8.735,43.267,19.359,85.576,62.627,94.311
	c38.293,7.731,114.413-5.723,134.193-42.721C293.934,411.515,236.65,419.542,205.079,413.168z"/>
<g>
	<path style="fill:#C971C2;" d="M276.048,366.201c3.784-18.746,14.621-34.294,29.177-44.478c-4.146-4.281-8.675-8.406-13.466-12.32
		c-16.575,12.715-28.822,31.215-33.271,53.252c-4.449,22.037-0.338,43.839,10.005,61.989c5.934-1.749,11.708-3.793,17.189-6.131
		C276.219,403.482,272.262,384.948,276.048,366.201z"/>
	<path style="fill:#C971C2;" d="M157.88,287.965c11.73,15.761,16.996,36.237,12.811,56.966
		c-4.185,20.728-16.982,37.558-33.909,47.534c3.038,5.179,6.656,10.005,10.775,14.391c20.312-12.58,35.602-33.168,40.692-58.381
		s-1.014-50.12-14.855-69.596C167.897,281.327,162.69,284.37,157.88,287.965z"/>
	<path style="fill:#C971C2;" d="M211.007,432.563c6.606,0.118,13.639-0.174,20.857-0.878c-15.897-21.611-22.991-49.583-17.276-77.89
		c5.714-28.307,23.105-51.336,46.141-65.087c-6.381-3.451-12.749-6.447-18.883-8.901c-22.35,16.555-38.894,41.099-44.818,70.444
		C191.105,379.594,196.832,408.633,211.007,432.563z"/>
</g>
</svg>