<svg xmlns="http://www.w3.org/2000/svg" xmlns:xlink="http://www.w3.org/1999/xlink" viewBox="0 0 512 512" id="fasting">
  <defs>
    <linearGradient id="b" x1="358.15" x2="358.15" y1="384.36" y2="458.47" gradientUnits="userSpaceOnUse">
      <stop offset="0" stop-color="#cacfdd"></stop>
      <stop offset="1" stop-color="#eef0f1"></stop>
    </linearGradient>
    <linearGradient id="a" x1="389.46" x2="389.46" y1="454.97" y2="422.32" gradientUnits="userSpaceOnUse">
      <stop offset="0" stop-color="#a9afc4"></stop>
      <stop offset="1" stop-color="#d4d8e5"></stop>
    </linearGradient>
    <linearGradient xlink:href="#a" id="c" x1="197.37" x2="197.37" y1="403.78" y2="444.7"></linearGradient>
    <linearGradient xlink:href="#a" id="d" x1="199.06" x2="199.06" y1="451.5" y2="403.59"></linearGradient>
    <linearGradient xlink:href="#b" id="e" x1="197.37" x2="197.37" y1="389.03" y2="434.08"></linearGradient>
    <linearGradient xlink:href="#b" id="f" x1="197.37" x2="197.37" y1="118.01" y2="368.2"></linearGradient>
  </defs>
  <g style="isolation:isolate">
    <g>
      <rect width="6" height="20.5" x="108.1" y="85.01" fill="#5e6175" transform="rotate(-45 111.099 95.261)"></rect>
      <rect width="20.5" height="6" x="87.11" y="116.41" fill="#5e6175"></rect>
      <rect width="6" height="20.5" x="131.01" y="70.71" fill="#5e6175"></rect>
      <path fill="#f5f5f5" d="M453.57,237c-5.79,58.61-7,70.91-20.18,204.31H345.53c-1.16-11.79-19-192.49-20.19-204.31Z"></path>
      <path fill="url(#b)" d="M377.71,395.23A23.75,23.75,0,0,1,354,419h-2.44L344.28,429l-5.69-57.5H354A23.74,23.74,0,0,1,377.71,395.23Z" style="mix-blend-mode:multiply"></path>
      <path fill="#5e6175" d="M436.11,444.28h-93.3L322,234H456.88Zm-87.87-6h82.43L450.26,240H328.65Z"></path>
      <path fill="url(#a)" d="M433.39,441.28H345.52l-2.62-26.63a12,12,0,0,0,12,10.84H424a12,12,0,0,0,12-10.84Z"></path>
      <path fill="#5e6175" d="M436.11,444.28h-93.3l-2.9-29.34c.49,0-1.75.17,6-.59a9,9,0,0,0,9,8.14H424a9,9,0,0,0,9-8.14l6,.59C438.78,417.83,440,404.51,436.11,444.28Zm-87.87-6h82.43l1.18-11.95a15,15,0,0,1-7.81,2.16H354.87a15,15,0,0,1-7.81-2.16Z"></path>
      <path fill="url(#c)" d="M343.63,403.62c-13.62,18.84-5.94,8.2-14.5,20.05a42.61,42.61,0,0,1-34.51,17.62H101a42.58,42.58,0,0,1-33.84-16.73c-4.66-6.09-6.23-8.16-16-20.94Z"></path>
      <path fill="url(#d)" d="M36,395.56a8.05,8.05,0,0,1,8-8.05h310a8.06,8.06,0,0,1,0,16.11h-310A8.06,8.06,0,0,1,36,395.56Z"></path>
      <polygon fill="url(#e)" points="343.63 403.62 332.94 418.4 62.4 418.4 51.1 403.62 343.63 403.62" style="mix-blend-mode:multiply"></polygon>
      <path fill="#5e6175" d="M354.06,406.62h-310a11.06,11.06,0,0,1,0-22.11h310a11.06,11.06,0,0,1,0,22.11Zm-310-16.11a5.06,5.06,0,0,0,0,10.11h310a5.06,5.06,0,0,0,0-10.11Z"></path>
      <path fill="#5e6175" d="M294.62,444.28H100.94a45.86,45.86,0,0,1-36.22-17.9L45,400.62H349.5l-17.94,24.8A45.73,45.73,0,0,1,294.62,444.28ZM57.18,406.62l12.31,16.11a39.81,39.81,0,0,0,31.45,15.55H294.62A39.71,39.71,0,0,0,326.7,421.9l11.06-15.28Z"></path>
      <circle cx="196.33" cy="369.56" r="45.08" fill="#e1830e"></circle>
      <path fill="#5e6175" d="M196.33,417.65a48.09,48.09,0,1,1,48.08-48.09A48.14,48.14,0,0,1,196.33,417.65Zm0-90.17a42.09,42.09,0,1,0,42.08,42.08A42.13,42.13,0,0,0,196.33,327.48Z"></path>
      <circle cx="197.37" cy="184.67" r="94.5" fill="#a9afc4"></circle>
      <path fill="#5e6175" d="M197.37,282.17a97.5,97.5,0,1,1,97.5-97.5A97.61,97.61,0,0,1,197.37,282.17Zm0-189a91.5,91.5,0,1,0,91.5,91.5A91.59,91.59,0,0,0,197.37,93.17Z"></path>
      <circle cx="197.37" cy="184.67" r="75.13" fill="#f5f5f5"></circle>
      <path fill="#5e6175" d="M197.37,262.8a78.13,78.13,0,1,1,78.13-78.13A78.22,78.22,0,0,1,197.37,262.8Zm0-150.26a72.13,72.13,0,1,0,72.13,72.13A72.22,72.22,0,0,0,197.37,112.54Z"></path>
      <circle cx="197.37" cy="184.67" r="53.49" fill="#dee1ec"></circle>
      <path fill="url(#f)" d="M250.86,184.67a53.49,53.49,0,0,1-53.49,53.49V184.67h-53.5a53.5,53.5,0,0,1,107,0Z" style="mix-blend-mode:multiply"></path>
      <path fill="url(#f)" d="M250.86,184.67a53.49,53.49,0,0,1-53.49,53.49V184.67h-53.5a53.5,53.5,0,0,1,107,0Z" style="mix-blend-mode:multiply"></path>
      <polyline fill="none" stroke="#5e6175" stroke-miterlimit="10" stroke-width="10" points="197.37 131.33 197.37 184.67 143.88 184.67"></polyline>
      <rect width="50.79" height="15.44" x="171.54" y="361.47" fill="#f5f5f5" transform="rotate(-45 196.936 369.196)"></rect>
      <rect width="15.44" height="50.79" x="189.22" y="343.8" fill="#f5f5f5" transform="rotate(-45 196.936 369.196)"></rect>
      <rect width="417.57" height="6" x="36" y="438.29" fill="#5e6175"></rect>
      <path fill="#a9afc4" d="M470.37,318.59l-6-.66.65-6,6,.66Zm1.75-15.9-6-.66.65-6,6,.65Zm1.75-15.91-6-.65.66-6,6,.66Zm1.75-15.9-6-.66.66-6,6,.65ZM477.36,255l-6-.65.65-6,6,.66ZM479,238.75l-6,0a22.28,22.28,0,0,0-.57-5.25l5.84-1.35A28.22,28.22,0,0,1,479,238.75Zm-10.18-13.27a22.86,22.86,0,0,0-3.56-3.92l3.95-4.52a28.55,28.55,0,0,1,4.49,5Zm-11.16-8.28a22,22,0,0,0-5.16-1.07l.52-6a28.58,28.58,0,0,1,6.55,1.36ZM442.76,216h-6v-6h6Zm-16,0h-6v-6h6Z"></path>
      <path fill="#e1830e" d="M85 350.66a18.91 18.91 0 0118.91 18.9 18.9 18.9 0 0118.9-18.9 18.9 18.9 0 01-18.9-18.91A18.91 18.91 0 0185 350.66zM264 300a8.48 8.48 0 018.49 8.48A8.46 8.46 0 01281 300a8.49 8.49 0 01-8.48-8.49A8.49 8.49 0 01264 300z"></path>
    </g>
  </g>
</svg>
