<svg width="42" height="42" viewBox="0 0 42 42" fill="none" xmlns="http://www.w3.org/2000/svg">
<path d="M20.877 0C17.7647 0 15.3687 0.815808 13.6503 2.15836C11.932 3.50091 10.9395 5.30596 10.2378 6.97612C9.53436 8.64468 9.08309 10.2442 8.63183 11.3924C8.18056 12.5406 7.80317 12.9855 7.47717 13.0979C2.93562 14.7102 0 19.051 0 24.0888V25.6947H1.60592C3.7707 25.6947 4.82419 26.146 5.32042 26.5475C5.81504 26.949 6.01096 27.4067 6.12338 28.2048C6.23579 29.0013 6.17959 29.9729 6.32412 31.0633C6.39799 31.6094 6.51201 32.2244 6.87495 32.8218C7.23949 33.416 7.89792 33.9299 8.63183 34.1756C10.3325 34.7409 11.4229 35.0974 12.0942 35.4812C12.7655 35.8634 13.167 36.2087 13.7001 37.3377C14.2092 38.4104 14.8917 39.5828 16.109 40.45C17.3263 41.3155 18.9643 41.7797 21.0279 41.754C24.402 41.7106 26.4158 39.9666 27.4516 38.4409C27.9719 37.6765 28.3349 37.0181 28.6561 36.5845C28.9756 36.1509 29.17 35.9823 29.5088 35.8827C31.6848 35.2291 33.09 34.1258 33.8753 32.8716C34.659 31.6158 34.81 30.3872 35.0284 29.5586C35.2484 28.7315 35.4058 28.4055 35.9325 28.0538C36.4592 27.7021 37.6637 27.3007 40.148 27.3007H41.754V25.6947C41.754 23.4802 41.8294 20.9027 40.8498 18.4681C39.8718 16.0335 37.6444 13.8832 33.9765 13.0481C33.9379 13.0417 33.893 13.061 33.7243 12.8474C33.4544 12.4767 33.2352 12.0716 33.0723 11.6429C32.6195 10.5188 32.1875 8.87593 31.4664 7.17686C30.7438 5.47619 29.716 3.64384 28.0025 2.25793C26.2921 0.872016 23.9395 0 20.877 0ZM20.877 3.21184C23.3501 3.21184 24.8597 3.84618 25.9967 4.76798C27.132 5.68978 27.8916 6.98255 28.5051 8.43109C29.1202 9.87963 29.5522 11.4486 30.111 12.8474C30.3872 13.5443 30.6892 14.1963 31.1645 14.805C31.6415 15.4136 32.3368 16.0094 33.2233 16.2102C36.114 16.8686 37.1867 18.0538 37.8403 19.6725C38.335 20.9027 38.3478 22.5889 38.3912 24.2398C36.6086 24.3891 35.1472 24.7103 34.1258 25.3928C32.7704 26.3034 32.1987 27.7021 31.9177 28.7556C31.635 29.8107 31.5291 30.5816 31.1645 31.1645C30.8016 31.7491 30.2058 32.3256 28.5549 32.8218C27.4147 33.1655 26.5925 33.9508 26.0464 34.6783C25.5004 35.4058 25.1744 36.0706 24.7906 36.6343C24.0262 37.7649 23.4738 38.51 20.9765 38.5421C19.3963 38.5614 18.55 38.2531 17.9654 37.8387C17.3825 37.426 16.9569 36.8238 16.5619 35.9823C15.8456 34.4647 14.8869 33.3486 13.7001 32.6709C12.5149 31.9932 11.2784 31.6591 9.63553 31.1147C9.62268 31.089 9.52954 30.9702 9.48457 30.6635C9.40428 30.0484 9.45245 28.9628 9.28383 27.7519C9.11521 26.5411 8.61898 25.0733 7.32621 24.039C6.42369 23.3116 5.13092 22.947 3.61332 22.7334C4.08386 19.6404 5.70905 17.1127 8.53226 16.109C10.2377 15.5068 11.0776 14.0213 11.6429 12.5968C12.2082 11.1724 12.6097 9.58574 13.1991 8.18056C13.7884 6.77538 14.4838 5.58861 15.608 4.7182C16.7305 3.84458 18.3107 3.21184 20.877 3.21184ZM16.0592 9.63553C15.176 9.63553 14.4533 10.7147 14.4533 12.0444C14.4533 13.3741 15.176 14.4533 16.0592 14.4533C16.9425 14.4533 17.6651 13.3741 17.6651 12.0444C17.6651 10.7147 16.9425 9.63553 16.0592 9.63553ZM22.4829 9.63553C21.5996 9.63553 20.877 10.7147 20.877 12.0444C20.877 13.3741 21.5996 14.4533 22.4829 14.4533C23.3662 14.4533 24.0888 13.3741 24.0888 12.0444C24.0888 10.7147 23.3662 9.63553 22.4829 9.63553Z" fill="white"/>
</svg>
