<svg width="45" height="45" viewBox="0 0 45 45" fill="none" xmlns="http://www.w3.org/2000/svg">
<mask id="mask0_0_349" style="mask-type:alpha" maskUnits="userSpaceOnUse" x="1" y="1" width="40" height="40">
<path d="M19.6875 35.625C28.4897 35.625 35.625 28.4897 35.625 19.6875C35.625 10.8853 28.4897 3.75 19.6875 3.75C10.8853 3.75 3.75 10.8853 3.75 19.6875C3.75 28.4897 10.8853 35.625 19.6875 35.625Z" fill="white" stroke="white" stroke-width="3.75" stroke-linejoin="round"/>
<path d="M24.9909 13.4466C24.2952 12.7491 23.4685 12.196 22.5584 11.819C21.6483 11.4421 20.6726 11.2487 19.6875 11.25C18.7024 11.2487 17.7267 11.4421 16.8165 11.819C15.9064 12.196 15.0797 12.7491 14.384 13.4466" stroke="black" stroke-width="3.75" stroke-linecap="round" stroke-linejoin="round"/>
<path d="M31.1455 31.1455L39.1002 39.1002" stroke="white" stroke-width="3.75" stroke-linecap="round" stroke-linejoin="round"/>
</mask>
<g mask="url(#mask0_0_349)">
<path d="M0 0H45V45H0V0Z" fill="#E3D3C4"/>
</g>
</svg>
