<!-- icon666.com - MILLIONS OF FREE VECTOR ICONS --><svg id="Layer_1" enable-background="new 0 0 64 64" viewBox="0 0 64 64" xmlns="http://www.w3.org/2000/svg"><g><g><path d="m37.403 28.858c5.37-6.21 8.55-10.81 8.55-10.81l10.73-10.73c4.45 4.45-2.23 11.11-1.63 12.99.61 1.91 4.25 2.46 5.99 3.51 2.56 1.55 2.51 5.29.44 7.29s-5.11 2.57-7.92 3.33c-1.28.35-2.81 1.15-2.62 2.48.18 1.22 4.75 3.98 1.48 7.24-3.28 3.26-12.52-1.26-15.25.69-2.73 1.96 1.82 5.04-1.73 8.02-1.88 1.58-5.87.83-8.34.36-1.57-.29-3.68-.35-4.11 1.15-.23.81.21 1.68.16 2.52-.1 1.86-2.33 2.68-4.19 2.75-3.03.11-9.5-2.25-9.5-2.25l10.02-10.02 10.01-10.01c2.979-2.98 5.639-5.89 7.91-8.51z" fill="#dd5c2f"></path><path d="m35.143 26.597c-2.62 2.27-5.53 4.93-8.51 7.91l-10.01 10.01-10.02 10.02s-2.36-6.47-2.25-9.5c.07-1.86.89-4.09 2.75-4.19.84-.05 1.71.39 2.52.16 1.5-.43 1.44-2.54 1.15-4.11-.47-2.47-1.22-6.46.36-8.34 2.98-3.55 6.06 1 8.02-1.73 1.95-2.73-2.57-11.97.69-15.25 3.26-3.27 6.02 1.3 7.24 1.48 1.33.19 2.13-1.34 2.48-2.62.76-2.81 1.33-5.85 3.33-7.92s5.74-2.12 7.29.44c1.05 1.74 1.6 5.38 3.51 5.99 1.88.6 8.54-6.08 12.99-1.63l-10.73 10.73c-.001.001-4.6 3.181-10.81 8.55z" fill="#ed7132"></path><path d="m37.403 28.858c-2.27 2.62-4.93 5.53-7.91 8.51l-10.01 10.01-10.02 10.02-5.01 5.01c-.79.79-2.07.79-2.86 0s-.79-2.07 0-2.86l5.01-5.01 10.02-10.02 10.01-10.01c2.98-2.98 5.89-5.64 8.51-7.91 6.21-5.37 10.81-8.55 10.81-8.55s-3.181 4.599-8.55 10.81z" fill="#a54d21"></path></g><path d="m63.965 26.813c-.186-1.657-1.04-3.024-2.406-3.852-.647-.391-1.455-.694-2.309-1.015-1.329-.499-2.982-1.12-3.236-1.904-.029-.354.577-1.531 1.02-2.39 1.542-2.996 3.874-7.524.355-11.042-3.52-3.52-8.047-1.186-11.042.355-.859.442-2.046 1.067-2.351 1.029-.824-.263-1.444-1.917-1.943-3.245-.321-.854-.624-1.661-1.015-2.31-.827-1.365-2.194-2.219-3.851-2.405-1.828-.207-3.75.48-5.014 1.788-1.925 1.992-2.619 4.674-3.291 7.268-.094.364-.188.727-.284 1.083-.265.969-.795 1.975-1.313 1.908-.155-.06-.574-.412-.88-.668-1.381-1.16-4.251-3.569-7.272-.541-2.176 2.19-1.522 6.203-.945 9.744.363 2.229.775 4.757.152 5.628-.459.638-.864.615-2.264.25-1.476-.385-3.706-.968-5.709 1.42-1.893 2.252-1.069 6.583-.578 9.165.23 1.245.252 2.768-.439 2.966-.243.068-.604.001-.988-.069-.394-.072-.837-.154-1.313-.127-2.424.13-3.603 2.681-3.696 5.152-.096 2.664 1.507 7.569 2.097 9.274l-4.565 4.565c-1.177 1.179-1.177 3.096 0 4.275.589.589 1.363.883 2.137.883s1.548-.294 2.137-.883l4.565-4.565c1.657.573 6.329 2.101 9.038 2.101.081 0 .161-.001.238-.004 2.47-.093 5.021-1.271 5.15-3.69.029-.478-.054-.924-.126-1.318-.071-.384-.138-.746-.07-.986.198-.693 1.723-.672 2.961-.443 2.588.492 6.918 1.316 9.17-.576 2.388-2.004 1.805-4.234 1.42-5.709-.366-1.4-.389-1.806.248-2.263.874-.624 3.401-.212 5.63.151 3.54.576 7.553 1.23 9.745-.947 3.028-3.019.617-5.891-.542-7.271-.257-.306-.609-.725-.655-.819-.081-.566.925-1.109 1.892-1.373.359-.097.722-.191 1.086-.285 2.594-.672 5.275-1.366 7.268-3.291 1.308-1.264 1.994-3.185 1.788-5.014zm-60.219 34.887c-.398.399-1.048.399-1.446 0-.399-.399-.399-1.048 0-1.446l5.01-5.01 20.03-20.03c2.648-2.647 5.494-5.292 8.458-7.86 1.837-1.588 3.537-2.988 5.017-4.168-1.18 1.48-2.579 3.18-4.167 5.017-2.568 2.964-5.213 5.81-7.861 8.458zm57.042-31.312c-1.613 1.559-4.036 2.187-6.379 2.793-.371.096-.741.192-1.109.292-2.325.636-3.576 1.977-3.346 3.59.09.613.537 1.145 1.102 1.817 1.443 1.719 2.269 2.965.662 4.567-1.465 1.457-4.943.891-8.012.39-2.989-.485-5.57-.906-7.116.197-1.825 1.31-1.359 3.093-1.019 4.395.376 1.44.648 2.481-.771 3.672-1.524 1.281-5.417.541-7.515.142-3.898-.719-4.965.855-5.253 1.86-.196.691-.078 1.332.026 1.897.057.309.111.602.097.842-.066 1.237-1.967 1.757-3.228 1.804-1.83.087-5.357-.929-7.625-1.675l8.709-8.709c5.728-1.814 9.483.559 9.65.668.17.112.361.166.551.166.323 0 .64-.156.833-.445.306-.459.182-1.081-.277-1.387-.158-.105-3.278-2.125-8.167-1.591l7.405-7.405c9.219-2.541 14.412 1.169 14.631 1.33.179.133.388.198.596.198.304 0 .604-.138.801-.4.332-.442.242-1.069-.2-1.4-.221-.166-4.973-3.614-13.296-2.316 1.839-1.92 3.665-3.92 5.456-5.981 6.506-2.648 11.445-2.3 13.823-1.849.543.107 1.066-.253 1.169-.796.103-.542-.253-1.066-.796-1.169-2.169-.412-6.283-.748-11.653.812 3.596-4.35 5.832-7.501 6.187-8.007l4.986-4.986c.391-.391.391-1.023 0-1.414s-1.023-.391-1.414 0l-4.986 4.986c-.506.355-3.657 2.591-8.007 6.187 1.559-5.37 1.224-9.484.812-11.653-.103-.542-.624-.9-1.169-.796-.542.103-.899.626-.796 1.169.451 2.377.799 7.317-1.849 13.823-2.061 1.791-4.061 3.617-5.981 5.456 1.298-8.323-2.15-13.074-2.317-13.296-.33-.441-.954-.531-1.396-.201-.442.329-.534.955-.207 1.397.161.218 3.871 5.413 1.33 14.631l-7.404 7.404c.533-4.888-1.487-8.009-1.592-8.166-.306-.459-.928-.585-1.387-.277-.459.306-.583.927-.277 1.387.026.039 2.496 3.86.666 9.647l-8.707 8.707c-.74-2.267-1.743-5.788-1.677-7.621.047-1.262.567-3.163 1.81-3.229.241-.013.527.041.836.097.565.104 1.205.221 1.9.026 1.003-.288 2.579-1.352 1.857-5.258-.398-2.091-1.138-5.984.144-7.51 1.191-1.419 2.233-1.147 3.672-.771 1.301.34 3.084.805 4.396-1.021 1.103-1.544.683-4.125.196-7.114-.5-3.068-1.067-6.546.389-8.011 1.603-1.609 2.849-.783 4.569.661.673.565 1.205 1.012 1.822 1.103 1.619.233 2.95-1.021 3.587-3.349.099-.366.195-.736.291-1.107.606-2.343 1.234-4.766 2.793-6.379.841-.872 2.122-1.328 3.352-1.19 1.026.115 1.866.631 2.363 1.452.295.49.567 1.213.854 1.979.684 1.823 1.46 3.889 3.207 4.447 1.011.321 2.21-.299 3.874-1.156 3.408-1.754 6.415-3.018 8.713-.72 2.299 2.299 1.034 5.306-.72 8.713-.857 1.665-1.477 2.868-1.156 3.874.558 1.747 2.624 2.523 4.447 3.207.766.288 1.489.559 1.977.854.822.498 1.338 1.337 1.454 2.363.137 1.227-.319 2.511-1.191 3.353z" fill="#252525"></path></g></svg>