<svg width="34" height="28" viewBox="0 0 34 28" fill="none" xmlns="http://www.w3.org/2000/svg">
<path d="M7.5 5.83333C9.11667 5.83333 10.6167 6.5625 11.85 7.84583C12.7667 6.98542 13.85 6.35833 15 6.05208V2.91667C15 2.14312 15.3512 1.40125 15.9763 0.854272C16.6014 0.307291 17.4493 0 18.3333 0H21.6667V2.91667H18.3333V6.05208C19.4833 6.35833 20.5667 6.98542 21.4833 7.84583C22.7167 6.5625 24.2167 5.83333 25.8333 5.83333C30 5.83333 33.3333 10.7333 33.3333 16.7708C33.3333 22.8083 30 27.7083 25.8333 27.7083C24.2167 27.7083 22.7167 26.9792 21.4833 25.6958C20.1333 26.9792 18.4667 27.7083 16.6667 27.7083C14.8667 27.7083 13.2 26.9792 11.85 25.6958C10.6167 26.9792 9.11667 27.7083 7.5 27.7083C3.33333 27.7083 0 22.8083 0 16.7708C0 10.7333 3.33333 5.83333 7.5 5.83333ZM11.6667 11.6667L9.58333 14.9479H13.75L11.6667 11.6667ZM21.6667 11.6667L19.5833 14.9479H23.75L21.6667 11.6667ZM10 21.875H13.3333L15 20.4167L16.6667 21.875H20L21.6667 20.4167L23.3333 21.875L25.8333 17.5L19.8667 18.4042L18.3333 20.4167L16.6667 18.9583H13.3333L11.6667 20.4167L10 18.9583L6.66667 17.5L10 21.875Z" fill="#F5F5F5"/>
</svg>
