<svg width="38" height="30" viewBox="0 0 38 30" fill="none" xmlns="http://www.w3.org/2000/svg">
<path d="M31.875 0H5.625C4.13316 0 2.70242 0.592632 1.64752 1.64752C0.592632 2.70242 0 4.13316 0 5.625V24.375C0 25.8668 0.592632 27.2976 1.64752 28.3525C2.70242 29.4074 4.13316 30 5.625 30H31.875C33.3668 30 34.7976 29.4074 35.8525 28.3525C36.9074 27.2976 37.5 25.8668 37.5 24.375V5.625C37.5 4.13316 36.9074 2.70242 35.8525 1.64752C34.7976 0.592632 33.3668 0 31.875 0ZM31.875 3.75L19.6875 12.1313C19.4025 12.2958 19.0791 12.3825 18.75 12.3825C18.4209 12.3825 18.0975 12.2958 17.8125 12.1313L5.625 3.75H31.875Z" fill="#E3D3C4"/>
</svg>
