<?xml version="1.0" encoding="UTF-8"?>
<svg xmlns="http://www.w3.org/2000/svg" xmlns:xlink="http://www.w3.org/1999/xlink" width="3000" height="1900" viewBox="0 0 3000 1900">
<defs>
<clipPath id="clip-0">
<path clip-rule="nonzero" d="M 1637 164 L 2868 164 L 2868 1373 L 1637 1373 Z M 1637 164 "/>
</clipPath>
<clipPath id="clip-1">
<path clip-rule="evenodd" d="M 2421.171875 1276.671875 C 2371.871094 1263.210938 2378.871094 1309.199219 2313 1351.441406 C 2295.21875 1362.671875 2274.410156 1370.828125 2250.300781 1372.058594 C 2002.828125 1380.078125 2146.390625 962.234375 2146.460938 963.117188 C 2145.640625 952.304688 2106.46875 975.71875 2099.351562 978.75 C 2019.789062 1050.769531 1838.550781 1201.121094 1722.558594 1096.378906 C 1705.050781 1076.898438 1671.160156 1046.011719 1689.378906 982.945312 C 1700.121094 934.125 1730.929688 879.25 1713.140625 863.269531 C 1665.628906 820.789062 1582.929688 719.238281 1688.519531 623.460938 C 1759.738281 574.789062 1910.890625 609.671875 2003.011719 637.730469 C 2016.78125 642.851562 2040.488281 640.621094 2031.628906 627.5 C 1983.648438 556.460938 1876.789062 503.101562 1852.691406 417.320312 C 1833.5 354.390625 1867.320312 274.359375 1936.359375 257.648438 C 1980.210938 250.730469 2025.089844 265.929688 2070.699219 269.648438 C 2112.761719 277.710938 2113.050781 203.160156 2198.710938 171.140625 C 2461.53125 108.53125 2368.03125 526.261719 2362.53125 563.191406 C 2363.359375 564.511719 2562.789062 355.921875 2689.988281 389.558594 C 2713.671875 395.578125 2772.398438 431.128906 2774.941406 481.671875 C 2783.128906 513.808594 2747.140625 623.859375 2769.308594 634.859375 C 2811.96875 664.148438 2920.71875 744.921875 2835.398438 863.96875 C 2778.519531 924.996094 2630.699219 920.890625 2532.808594 904.660156 C 2412.351562 884.691406 2438.621094 903.394531 2542.441406 1010.621094 C 2616.949219 1087.558594 2709.789062 1217.851562 2574.070312 1283.871094 C 2515.769531 1312.230469 2471.609375 1285.828125 2421.171875 1276.671875 "/>
</clipPath>
<radialGradient id="radial-pattern-0" gradientUnits="userSpaceOnUse" cx="0" cy="0" fx="0" fy="0" r="609.363" gradientTransform="matrix(1, 0, 0, 1, 2240.72, 777.24)">
<stop offset="0" stop-color="rgb(35.472107%, 71.075439%, 31.858826%)" stop-opacity="1"/>
<stop offset="0.00390625" stop-color="rgb(35.830688%, 71.266174%, 32.049561%)" stop-opacity="1"/>
<stop offset="0.0078125" stop-color="rgb(36.18927%, 71.456909%, 32.240295%)" stop-opacity="1"/>
<stop offset="0.0117188" stop-color="rgb(36.546326%, 71.646118%, 32.43103%)" stop-opacity="1"/>
<stop offset="0.015625" stop-color="rgb(36.901855%, 71.836853%, 32.620239%)" stop-opacity="1"/>
<stop offset="0.0195312" stop-color="rgb(37.257385%, 72.024536%, 32.809448%)" stop-opacity="1"/>
<stop offset="0.0234375" stop-color="rgb(37.611389%, 72.213745%, 32.997131%)" stop-opacity="1"/>
<stop offset="0.0273438" stop-color="rgb(37.963867%, 72.401428%, 33.18634%)" stop-opacity="1"/>
<stop offset="0.03125" stop-color="rgb(38.316345%, 72.589111%, 33.374023%)" stop-opacity="1"/>
<stop offset="0.0351562" stop-color="rgb(38.668823%, 72.776794%, 33.560181%)" stop-opacity="1"/>
<stop offset="0.0390625" stop-color="rgb(39.01825%, 72.962952%, 33.747864%)" stop-opacity="1"/>
<stop offset="0.0429688" stop-color="rgb(39.367676%, 73.149109%, 33.934021%)" stop-opacity="1"/>
<stop offset="0.046875" stop-color="rgb(39.717102%, 73.33374%, 34.118652%)" stop-opacity="1"/>
<stop offset="0.0507812" stop-color="rgb(40.063477%, 73.518372%, 34.303284%)" stop-opacity="1"/>
<stop offset="0.0546875" stop-color="rgb(40.409851%, 73.703003%, 34.487915%)" stop-opacity="1"/>
<stop offset="0.0585938" stop-color="rgb(40.756226%, 73.887634%, 34.672546%)" stop-opacity="1"/>
<stop offset="0.0625" stop-color="rgb(41.099548%, 74.072266%, 34.855652%)" stop-opacity="1"/>
<stop offset="0.0664062" stop-color="rgb(41.442871%, 74.253845%, 35.038757%)" stop-opacity="1"/>
<stop offset="0.0703125" stop-color="rgb(41.786194%, 74.436951%, 35.220337%)" stop-opacity="1"/>
<stop offset="0.0742188" stop-color="rgb(42.126465%, 74.61853%, 35.401917%)" stop-opacity="1"/>
<stop offset="0.078125" stop-color="rgb(42.466736%, 74.80011%, 35.583496%)" stop-opacity="1"/>
<stop offset="0.0820312" stop-color="rgb(42.807007%, 74.980164%, 35.765076%)" stop-opacity="1"/>
<stop offset="0.0859375" stop-color="rgb(43.144226%, 75.160217%, 35.945129%)" stop-opacity="1"/>
<stop offset="0.0898438" stop-color="rgb(43.481445%, 75.340271%, 36.123657%)" stop-opacity="1"/>
<stop offset="0.09375" stop-color="rgb(43.818665%, 75.518799%, 36.302185%)" stop-opacity="1"/>
<stop offset="0.0976562" stop-color="rgb(44.152832%, 75.697327%, 36.480713%)" stop-opacity="1"/>
<stop offset="0.101562" stop-color="rgb(44.487%, 75.874329%, 36.659241%)" stop-opacity="1"/>
<stop offset="0.105469" stop-color="rgb(44.819641%, 76.052856%, 36.836243%)" stop-opacity="1"/>
<stop offset="0.109375" stop-color="rgb(45.150757%, 76.228333%, 37.013245%)" stop-opacity="1"/>
<stop offset="0.113281" stop-color="rgb(45.481873%, 76.403809%, 37.188721%)" stop-opacity="1"/>
<stop offset="0.117188" stop-color="rgb(45.811462%, 76.579285%, 37.364197%)" stop-opacity="1"/>
<stop offset="0.121094" stop-color="rgb(46.139526%, 76.754761%, 37.539673%)" stop-opacity="1"/>
<stop offset="0.125" stop-color="rgb(46.46759%, 76.928711%, 37.713623%)" stop-opacity="1"/>
<stop offset="0.128906" stop-color="rgb(46.792603%, 77.102661%, 37.887573%)" stop-opacity="1"/>
<stop offset="0.132812" stop-color="rgb(47.117615%, 77.275085%, 38.059998%)" stop-opacity="1"/>
<stop offset="0.136719" stop-color="rgb(47.441101%, 77.44751%, 38.232422%)" stop-opacity="1"/>
<stop offset="0.140625" stop-color="rgb(47.763062%, 77.619934%, 38.40332%)" stop-opacity="1"/>
<stop offset="0.144531" stop-color="rgb(48.085022%, 77.790833%, 38.575745%)" stop-opacity="1"/>
<stop offset="0.148438" stop-color="rgb(48.405457%, 77.960205%, 38.745117%)" stop-opacity="1"/>
<stop offset="0.152344" stop-color="rgb(48.724365%, 78.129578%, 38.91449%)" stop-opacity="1"/>
<stop offset="0.15625" stop-color="rgb(49.041748%, 78.29895%, 39.083862%)" stop-opacity="1"/>
<stop offset="0.160156" stop-color="rgb(49.357605%, 78.468323%, 39.253235%)" stop-opacity="1"/>
<stop offset="0.164062" stop-color="rgb(49.671936%, 78.636169%, 39.419556%)" stop-opacity="1"/>
<stop offset="0.167969" stop-color="rgb(49.984741%, 78.80249%, 39.585876%)" stop-opacity="1"/>
<stop offset="0.171875" stop-color="rgb(50.297546%, 78.968811%, 39.752197%)" stop-opacity="1"/>
<stop offset="0.175781" stop-color="rgb(50.608826%, 79.135132%, 39.918518%)" stop-opacity="1"/>
<stop offset="0.179688" stop-color="rgb(50.918579%, 79.299927%, 40.083313%)" stop-opacity="1"/>
<stop offset="0.183594" stop-color="rgb(51.226807%, 79.463196%, 40.248108%)" stop-opacity="1"/>
<stop offset="0.1875" stop-color="rgb(51.533508%, 79.626465%, 40.411377%)" stop-opacity="1"/>
<stop offset="0.191406" stop-color="rgb(51.838684%, 79.789734%, 40.57312%)" stop-opacity="1"/>
<stop offset="0.195312" stop-color="rgb(52.142334%, 79.951477%, 40.734863%)" stop-opacity="1"/>
<stop offset="0.199219" stop-color="rgb(52.445984%, 80.111694%, 40.896606%)" stop-opacity="1"/>
<stop offset="0.203125" stop-color="rgb(52.746582%, 80.271912%, 41.056824%)" stop-opacity="1"/>
<stop offset="0.207031" stop-color="rgb(53.045654%, 80.432129%, 41.217041%)" stop-opacity="1"/>
<stop offset="0.210938" stop-color="rgb(53.343201%, 80.59082%, 41.375732%)" stop-opacity="1"/>
<stop offset="0.214844" stop-color="rgb(53.640747%, 80.747986%, 41.532898%)" stop-opacity="1"/>
<stop offset="0.21875" stop-color="rgb(53.935242%, 80.905151%, 41.690063%)" stop-opacity="1"/>
<stop offset="0.222656" stop-color="rgb(54.229736%, 81.062317%, 41.847229%)" stop-opacity="1"/>
<stop offset="0.226562" stop-color="rgb(54.521179%, 81.217957%, 42.001343%)" stop-opacity="1"/>
<stop offset="0.230469" stop-color="rgb(54.811096%, 81.37207%, 42.155457%)" stop-opacity="1"/>
<stop offset="0.234375" stop-color="rgb(55.099487%, 81.526184%, 42.30957%)" stop-opacity="1"/>
<stop offset="0.238281" stop-color="rgb(55.386353%, 81.678772%, 42.463684%)" stop-opacity="1"/>
<stop offset="0.242188" stop-color="rgb(55.671692%, 81.829834%, 42.614746%)" stop-opacity="1"/>
<stop offset="0.246094" stop-color="rgb(55.955505%, 81.980896%, 42.765808%)" stop-opacity="1"/>
<stop offset="0.25" stop-color="rgb(56.237793%, 82.131958%, 42.915344%)" stop-opacity="1"/>
<stop offset="0.253906" stop-color="rgb(56.517029%, 82.279968%, 43.06488%)" stop-opacity="1"/>
<stop offset="0.257812" stop-color="rgb(56.796265%, 82.427979%, 43.212891%)" stop-opacity="1"/>
<stop offset="0.261719" stop-color="rgb(57.072449%, 82.575989%, 43.360901%)" stop-opacity="1"/>
<stop offset="0.265625" stop-color="rgb(57.345581%, 82.722473%, 43.505859%)" stop-opacity="1"/>
<stop offset="0.269531" stop-color="rgb(57.618713%, 82.867432%, 43.650818%)" stop-opacity="1"/>
<stop offset="0.273438" stop-color="rgb(57.888794%, 83.010864%, 43.795776%)" stop-opacity="1"/>
<stop offset="0.277344" stop-color="rgb(58.157349%, 83.154297%, 43.937683%)" stop-opacity="1"/>
<stop offset="0.28125" stop-color="rgb(58.424377%, 83.296204%, 44.07959%)" stop-opacity="1"/>
<stop offset="0.285156" stop-color="rgb(58.688354%, 83.436584%, 44.221497%)" stop-opacity="1"/>
<stop offset="0.289062" stop-color="rgb(58.950806%, 83.576965%, 44.360352%)" stop-opacity="1"/>
<stop offset="0.292969" stop-color="rgb(59.211731%, 83.71582%, 44.499207%)" stop-opacity="1"/>
<stop offset="0.296875" stop-color="rgb(59.469604%, 83.853149%, 44.636536%)" stop-opacity="1"/>
<stop offset="0.300781" stop-color="rgb(59.724426%, 83.988953%, 44.772339%)" stop-opacity="1"/>
<stop offset="0.304688" stop-color="rgb(59.977722%, 84.12323%, 44.908142%)" stop-opacity="1"/>
<stop offset="0.308594" stop-color="rgb(60.229492%, 84.257507%, 45.040894%)" stop-opacity="1"/>
<stop offset="0.3125" stop-color="rgb(60.47821%, 84.390259%, 45.173645%)" stop-opacity="1"/>
<stop offset="0.316406" stop-color="rgb(60.723877%, 84.519958%, 45.304871%)" stop-opacity="1"/>
<stop offset="0.320312" stop-color="rgb(60.966492%, 84.649658%, 45.43457%)" stop-opacity="1"/>
<stop offset="0.324219" stop-color="rgb(61.207581%, 84.777832%, 45.562744%)" stop-opacity="1"/>
<stop offset="0.328125" stop-color="rgb(61.445618%, 84.90448%, 45.689392%)" stop-opacity="1"/>
<stop offset="0.332031" stop-color="rgb(61.679077%, 85.029602%, 45.812988%)" stop-opacity="1"/>
<stop offset="0.335938" stop-color="rgb(61.911011%, 85.153198%, 45.936584%)" stop-opacity="1"/>
<stop offset="0.339844" stop-color="rgb(62.139893%, 85.275269%, 46.058655%)" stop-opacity="1"/>
<stop offset="0.34375" stop-color="rgb(62.365723%, 85.395813%, 46.179199%)" stop-opacity="1"/>
<stop offset="0.347656" stop-color="rgb(62.588501%, 85.513306%, 46.296692%)" stop-opacity="1"/>
<stop offset="0.351562" stop-color="rgb(62.806702%, 85.629272%, 46.414185%)" stop-opacity="1"/>
<stop offset="0.355469" stop-color="rgb(63.021851%, 85.743713%, 46.528625%)" stop-opacity="1"/>
<stop offset="0.359375" stop-color="rgb(63.232422%, 85.856628%, 46.640015%)" stop-opacity="1"/>
<stop offset="0.363281" stop-color="rgb(63.439941%, 85.966492%, 46.751404%)" stop-opacity="1"/>
<stop offset="0.367188" stop-color="rgb(63.642883%, 86.074829%, 46.859741%)" stop-opacity="1"/>
<stop offset="0.371094" stop-color="rgb(63.937378%, 86.230469%, 47.015381%)" stop-opacity="1"/>
<stop offset="0.378906" stop-color="rgb(64.312744%, 86.431885%, 47.215271%)" stop-opacity="1"/>
<stop offset="0.386719" stop-color="rgb(64.665222%, 86.619568%, 47.402954%)" stop-opacity="1"/>
<stop offset="0.394531" stop-color="rgb(64.985657%, 86.790466%, 47.573853%)" stop-opacity="1"/>
<stop offset="0.402344" stop-color="rgb(65.180969%, 86.897278%, 47.714233%)" stop-opacity="1"/>
<stop offset="0.4375" stop-color="rgb(65.034485%, 86.828613%, 47.721863%)" stop-opacity="1"/>
<stop offset="0.453125" stop-color="rgb(64.729309%, 86.6745%, 47.642517%)" stop-opacity="1"/>
<stop offset="0.460938" stop-color="rgb(64.479065%, 86.549377%, 47.576904%)" stop-opacity="1"/>
<stop offset="0.46875" stop-color="rgb(64.198303%, 86.407471%, 47.502136%)" stop-opacity="1"/>
<stop offset="0.476562" stop-color="rgb(63.891602%, 86.253357%, 47.421265%)" stop-opacity="1"/>
<stop offset="0.484375" stop-color="rgb(63.557434%, 86.08551%, 47.33429%)" stop-opacity="1"/>
<stop offset="0.492188" stop-color="rgb(63.198853%, 85.903931%, 47.239685%)" stop-opacity="1"/>
<stop offset="0.5" stop-color="rgb(62.915039%, 85.760498%, 47.164917%)" stop-opacity="1"/>
<stop offset="0.503906" stop-color="rgb(62.716675%, 85.661316%, 47.113037%)" stop-opacity="1"/>
<stop offset="0.507812" stop-color="rgb(62.512207%, 85.557556%, 47.059631%)" stop-opacity="1"/>
<stop offset="0.511719" stop-color="rgb(62.301636%, 85.452271%, 47.0047%)" stop-opacity="1"/>
<stop offset="0.515625" stop-color="rgb(62.084961%, 85.343933%, 46.948242%)" stop-opacity="1"/>
<stop offset="0.519531" stop-color="rgb(61.863708%, 85.232544%, 46.888733%)" stop-opacity="1"/>
<stop offset="0.523438" stop-color="rgb(61.634827%, 85.116577%, 46.829224%)" stop-opacity="1"/>
<stop offset="0.527344" stop-color="rgb(61.402893%, 84.999084%, 46.768188%)" stop-opacity="1"/>
<stop offset="0.53125" stop-color="rgb(61.16333%, 84.880066%, 46.705627%)" stop-opacity="1"/>
<stop offset="0.535156" stop-color="rgb(60.919189%, 84.75647%, 46.641541%)" stop-opacity="1"/>
<stop offset="0.539062" stop-color="rgb(60.668945%, 84.629822%, 46.575928%)" stop-opacity="1"/>
<stop offset="0.542969" stop-color="rgb(60.414124%, 84.501648%, 46.508789%)" stop-opacity="1"/>
<stop offset="0.546875" stop-color="rgb(60.153198%, 84.370422%, 46.440125%)" stop-opacity="1"/>
<stop offset="0.550781" stop-color="rgb(59.887695%, 84.236145%, 46.369934%)" stop-opacity="1"/>
<stop offset="0.554688" stop-color="rgb(59.616089%, 84.098816%, 46.298218%)" stop-opacity="1"/>
<stop offset="0.558594" stop-color="rgb(59.338379%, 83.959961%, 46.226501%)" stop-opacity="1"/>
<stop offset="0.5625" stop-color="rgb(59.056091%, 83.818054%, 46.151733%)" stop-opacity="1"/>
<stop offset="0.566406" stop-color="rgb(58.769226%, 83.673096%, 46.076965%)" stop-opacity="1"/>
<stop offset="0.570312" stop-color="rgb(58.476257%, 83.526611%, 45.999146%)" stop-opacity="1"/>
<stop offset="0.574219" stop-color="rgb(58.180237%, 83.375549%, 45.921326%)" stop-opacity="1"/>
<stop offset="0.578125" stop-color="rgb(57.878113%, 83.224487%, 45.84198%)" stop-opacity="1"/>
<stop offset="0.582031" stop-color="rgb(57.569885%, 83.068848%, 45.761108%)" stop-opacity="1"/>
<stop offset="0.585938" stop-color="rgb(57.25708%, 82.911682%, 45.678711%)" stop-opacity="1"/>
<stop offset="0.589844" stop-color="rgb(56.939697%, 82.751465%, 45.594788%)" stop-opacity="1"/>
<stop offset="0.59375" stop-color="rgb(56.617737%, 82.589722%, 45.510864%)" stop-opacity="1"/>
<stop offset="0.597656" stop-color="rgb(56.291199%, 82.424927%, 45.425415%)" stop-opacity="1"/>
<stop offset="0.601562" stop-color="rgb(55.958557%, 82.25708%, 45.33844%)" stop-opacity="1"/>
<stop offset="0.605469" stop-color="rgb(55.621338%, 82.087708%, 45.249939%)" stop-opacity="1"/>
<stop offset="0.609375" stop-color="rgb(55.279541%, 81.916809%, 45.159912%)" stop-opacity="1"/>
<stop offset="0.613281" stop-color="rgb(54.933167%, 81.741333%, 45.068359%)" stop-opacity="1"/>
<stop offset="0.617188" stop-color="rgb(54.582214%, 81.564331%, 44.975281%)" stop-opacity="1"/>
<stop offset="0.621094" stop-color="rgb(54.226685%, 81.385803%, 44.882202%)" stop-opacity="1"/>
<stop offset="0.625" stop-color="rgb(53.866577%, 81.204224%, 44.787598%)" stop-opacity="1"/>
<stop offset="0.628906" stop-color="rgb(53.500366%, 81.019592%, 44.691467%)" stop-opacity="1"/>
<stop offset="0.632812" stop-color="rgb(53.131104%, 80.833435%, 44.595337%)" stop-opacity="1"/>
<stop offset="0.636719" stop-color="rgb(52.757263%, 80.645752%, 44.496155%)" stop-opacity="1"/>
<stop offset="0.640625" stop-color="rgb(52.378845%, 80.455017%, 44.396973%)" stop-opacity="1"/>
<stop offset="0.644531" stop-color="rgb(51.994324%, 80.26123%, 44.296265%)" stop-opacity="1"/>
<stop offset="0.648438" stop-color="rgb(51.60675%, 80.065918%, 44.194031%)" stop-opacity="1"/>
<stop offset="0.652344" stop-color="rgb(51.213074%, 79.867554%, 44.091797%)" stop-opacity="1"/>
<stop offset="0.65625" stop-color="rgb(50.816345%, 79.667664%, 43.986511%)" stop-opacity="1"/>
<stop offset="0.660156" stop-color="rgb(50.415039%, 79.464722%, 43.881226%)" stop-opacity="1"/>
<stop offset="0.664062" stop-color="rgb(50.009155%, 79.260254%, 43.774414%)" stop-opacity="1"/>
<stop offset="0.667969" stop-color="rgb(49.598694%, 79.05426%, 43.666077%)" stop-opacity="1"/>
<stop offset="0.671875" stop-color="rgb(49.183655%, 78.845215%, 43.557739%)" stop-opacity="1"/>
<stop offset="0.675781" stop-color="rgb(48.764038%, 78.634644%, 43.447876%)" stop-opacity="1"/>
<stop offset="0.679688" stop-color="rgb(48.339844%, 78.421021%, 43.336487%)" stop-opacity="1"/>
<stop offset="0.683594" stop-color="rgb(47.912598%, 78.205872%, 43.223572%)" stop-opacity="1"/>
<stop offset="0.6875" stop-color="rgb(47.480774%, 77.987671%, 43.109131%)" stop-opacity="1"/>
<stop offset="0.691406" stop-color="rgb(47.044373%, 77.767944%, 42.99469%)" stop-opacity="1"/>
<stop offset="0.695312" stop-color="rgb(46.603394%, 77.546692%, 42.878723%)" stop-opacity="1"/>
<stop offset="0.699219" stop-color="rgb(46.157837%, 77.322388%, 42.76123%)" stop-opacity="1"/>
<stop offset="0.703125" stop-color="rgb(45.709229%, 77.095032%, 42.643738%)" stop-opacity="1"/>
<stop offset="0.707031" stop-color="rgb(45.254517%, 76.867676%, 42.524719%)" stop-opacity="1"/>
<stop offset="0.710938" stop-color="rgb(44.796753%, 76.637268%, 42.404175%)" stop-opacity="1"/>
<stop offset="0.714844" stop-color="rgb(44.335938%, 76.403809%, 42.28363%)" stop-opacity="1"/>
<stop offset="0.71875" stop-color="rgb(43.869019%, 76.168823%, 42.160034%)" stop-opacity="1"/>
<stop offset="0.722656" stop-color="rgb(43.399048%, 75.932312%, 42.036438%)" stop-opacity="1"/>
<stop offset="0.726562" stop-color="rgb(42.9245%, 75.692749%, 41.912842%)" stop-opacity="1"/>
<stop offset="0.730469" stop-color="rgb(42.445374%, 75.45166%, 41.786194%)" stop-opacity="1"/>
<stop offset="0.734375" stop-color="rgb(41.963196%, 75.209045%, 41.659546%)" stop-opacity="1"/>
<stop offset="0.738281" stop-color="rgb(41.47644%, 74.963379%, 41.532898%)" stop-opacity="1"/>
<stop offset="0.742188" stop-color="rgb(40.985107%, 74.716187%, 41.403198%)" stop-opacity="1"/>
<stop offset="0.746094" stop-color="rgb(40.489197%, 74.467468%, 41.273499%)" stop-opacity="1"/>
<stop offset="0.75" stop-color="rgb(39.990234%, 74.215698%, 41.142273%)" stop-opacity="1"/>
<stop offset="0.753906" stop-color="rgb(39.486694%, 73.962402%, 41.009521%)" stop-opacity="1"/>
<stop offset="0.757812" stop-color="rgb(38.980103%, 73.706055%, 40.87677%)" stop-opacity="1"/>
<stop offset="0.761719" stop-color="rgb(38.468933%, 73.448181%, 40.742493%)" stop-opacity="1"/>
<stop offset="0.765625" stop-color="rgb(37.953186%, 73.188782%, 40.606689%)" stop-opacity="1"/>
<stop offset="0.769531" stop-color="rgb(37.434387%, 72.927856%, 40.470886%)" stop-opacity="1"/>
<stop offset="0.773438" stop-color="rgb(36.911011%, 72.663879%, 40.332031%)" stop-opacity="1"/>
<stop offset="0.777344" stop-color="rgb(36.383057%, 72.398376%, 40.193176%)" stop-opacity="1"/>
<stop offset="0.78125" stop-color="rgb(35.852051%, 72.131348%, 40.054321%)" stop-opacity="1"/>
<stop offset="0.785156" stop-color="rgb(35.317993%, 71.861267%, 39.91394%)" stop-opacity="1"/>
<stop offset="0.789062" stop-color="rgb(34.779358%, 71.589661%, 39.772034%)" stop-opacity="1"/>
<stop offset="0.792969" stop-color="rgb(34.236145%, 71.316528%, 39.630127%)" stop-opacity="1"/>
<stop offset="0.796875" stop-color="rgb(33.688354%, 71.04187%, 39.485168%)" stop-opacity="1"/>
<stop offset="0.800781" stop-color="rgb(33.139038%, 70.76416%, 39.34021%)" stop-opacity="1"/>
<stop offset="0.804688" stop-color="rgb(32.583618%, 70.484924%, 39.195251%)" stop-opacity="1"/>
<stop offset="0.808594" stop-color="rgb(32.025146%, 70.202637%, 39.048767%)" stop-opacity="1"/>
<stop offset="0.8125" stop-color="rgb(31.463623%, 69.920349%, 38.900757%)" stop-opacity="1"/>
<stop offset="0.816406" stop-color="rgb(30.897522%, 69.63501%, 38.752747%)" stop-opacity="1"/>
<stop offset="0.820312" stop-color="rgb(30.326843%, 69.348145%, 38.601685%)" stop-opacity="1"/>
<stop offset="0.824219" stop-color="rgb(29.753113%, 69.059753%, 38.450623%)" stop-opacity="1"/>
<stop offset="0.828125" stop-color="rgb(29.174805%, 68.768311%, 38.299561%)" stop-opacity="1"/>
<stop offset="0.832031" stop-color="rgb(28.593445%, 68.475342%, 38.146973%)" stop-opacity="1"/>
<stop offset="0.835938" stop-color="rgb(28.007507%, 68.180847%, 37.992859%)" stop-opacity="1"/>
<stop offset="0.839844" stop-color="rgb(27.418518%, 67.883301%, 37.838745%)" stop-opacity="1"/>
<stop offset="0.84375" stop-color="rgb(26.826477%, 67.585754%, 37.683105%)" stop-opacity="1"/>
<stop offset="0.847656" stop-color="rgb(26.229858%, 67.285156%, 37.52594%)" stop-opacity="1"/>
<stop offset="0.851562" stop-color="rgb(25.630188%, 66.983032%, 37.368774%)" stop-opacity="1"/>
<stop offset="0.855469" stop-color="rgb(25.02594%, 66.679382%, 37.210083%)" stop-opacity="1"/>
<stop offset="0.859375" stop-color="rgb(24.41864%, 66.372681%, 37.049866%)" stop-opacity="1"/>
<stop offset="0.863281" stop-color="rgb(23.806763%, 66.064453%, 36.889648%)" stop-opacity="1"/>
<stop offset="0.867188" stop-color="rgb(23.191833%, 65.7547%, 36.727905%)" stop-opacity="1"/>
<stop offset="0.871094" stop-color="rgb(22.572327%, 65.441895%, 36.564636%)" stop-opacity="1"/>
<stop offset="0.875" stop-color="rgb(21.949768%, 65.129089%, 36.401367%)" stop-opacity="1"/>
<stop offset="0.878906" stop-color="rgb(21.324158%, 64.813232%, 36.236572%)" stop-opacity="1"/>
<stop offset="0.882812" stop-color="rgb(20.69397%, 64.49585%, 36.070251%)" stop-opacity="1"/>
<stop offset="0.886719" stop-color="rgb(20.06073%, 64.176941%, 35.903931%)" stop-opacity="1"/>
<stop offset="0.890625" stop-color="rgb(19.422913%, 63.856506%, 35.73761%)" stop-opacity="1"/>
<stop offset="0.894531" stop-color="rgb(18.782043%, 63.534546%, 35.568237%)" stop-opacity="1"/>
<stop offset="0.898438" stop-color="rgb(18.138123%, 63.209534%, 35.398865%)" stop-opacity="1"/>
<stop offset="0.902344" stop-color="rgb(17.489624%, 62.882996%, 35.229492%)" stop-opacity="1"/>
<stop offset="0.90625" stop-color="rgb(16.838074%, 62.554932%, 35.057068%)" stop-opacity="1"/>
<stop offset="0.910156" stop-color="rgb(16.181946%, 62.223816%, 34.884644%)" stop-opacity="1"/>
<stop offset="0.914062" stop-color="rgb(15.522766%, 61.8927%, 34.712219%)" stop-opacity="1"/>
<stop offset="0.917969" stop-color="rgb(14.860535%, 61.558533%, 34.538269%)" stop-opacity="1"/>
<stop offset="0.921875" stop-color="rgb(14.195251%, 61.222839%, 34.362793%)" stop-opacity="1"/>
<stop offset="0.925781" stop-color="rgb(13.525391%, 60.88562%, 34.187317%)" stop-opacity="1"/>
<stop offset="0.929688" stop-color="rgb(12.850952%, 60.546875%, 34.010315%)" stop-opacity="1"/>
<stop offset="0.933594" stop-color="rgb(12.174988%, 60.206604%, 33.831787%)" stop-opacity="1"/>
<stop offset="0.9375" stop-color="rgb(11.799622%, 60.017395%, 33.734131%)" stop-opacity="1"/>
<stop offset="1" stop-color="rgb(11.764526%, 59.999084%, 33.724976%)" stop-opacity="1"/>
</radialGradient>
</defs>
<rect x="-300" y="-190" width="3600" height="2280" fill="rgb(100%, 100%, 100%)" fill-opacity="1"/>
<path fill-rule="nonzero" fill="rgb(16.479492%, 54.881287%, 33.714294%)" fill-opacity="1" d="M 2164.160156 947.621094 C 2130.730469 991.464844 2089.058594 1028.730469 2059.351562 1076.988281 C 1959.359375 1233.5 1882.511719 1545.171875 2096.019531 1636.53125 C 2112.378906 1641.789062 2125.191406 1645.859375 2122.910156 1663.171875 C 2116.371094 1712.679688 2008.300781 1638.679688 1978.550781 1603.859375 C 1879.269531 1487.691406 1918.679688 1304.070312 1963.601562 1189.738281 C 1984.730469 1137.699219 2013.210938 1097.820312 2044.980469 1052.171875 C 2074.089844 1010.941406 2155.820312 930.214844 2164.160156 947.621094 "/>
<g clip-path="url(#clip-0)">
<g clip-path="url(#clip-1)">
<path fill-rule="nonzero" fill="url(#radial-pattern-0)" d="M 1582.929688 108.53125 L 1582.929688 1380.078125 L 2920.71875 1380.078125 L 2920.71875 108.53125 Z M 1582.929688 108.53125 "/>
</g>
</g>
<path fill-rule="nonzero" fill="rgb(16.479492%, 54.881287%, 33.714294%)" fill-opacity="1" d="M 745.707031 947.667969 C 711.355469 992.707031 668.558594 1030.988281 638.03125 1080.558594 C 535.320312 1241.339844 456.378906 1561.5 675.699219 1655.351562 C 692.511719 1660.761719 705.671875 1664.941406 703.324219 1682.71875 C 696.609375 1733.578125 585.597656 1657.558594 555.027344 1621.789062 C 453.042969 1502.460938 493.53125 1313.828125 539.679688 1196.378906 C 561.378906 1142.929688 590.636719 1101.960938 623.277344 1055.070312 C 653.183594 1012.710938 737.136719 929.785156 745.707031 947.667969 "/>
<path fill-rule="nonzero" fill="rgb(16.479492%, 54.881287%, 33.714294%)" fill-opacity="1" d="M 1345.730469 845.558594 C 1325.910156 865.988281 1287.820312 879.03125 1235.429688 883.28125 C 1176.128906 888.101562 1117.191406 880.519531 1087.339844 875.570312 C 1061.488281 871.28125 1044.558594 869.210938 1032.460938 868.859375 C 1023.980469 868.609375 1001.46875 867.96875 992.359375 885.410156 C 982.34375 904.582031 998.726562 924.269531 1007.53125 934.84375 C 1018.691406 948.257812 1035.859375 965.882812 1057.601562 988.195312 C 1063.828125 994.59375 1070.46875 1001.410156 1077.5 1008.671875 C 1139.878906 1073.078125 1170.359375 1130.5 1163.339844 1170.351562 C 1159.308594 1193.21875 1142.699219 1211.46875 1112.550781 1226.140625 C 1079.210938 1242.359375 1051.800781 1234.859375 1020.058594 1226.191406 C 1009.109375 1223.191406 997.800781 1220.101562 985.871094 1217.890625 C 946.898438 1207.640625 929.964844 1228.769531 915.003906 1247.429688 C 904.664062 1260.328125 892.945312 1274.960938 870.347656 1289.460938 C 855.015625 1299.121094 839.589844 1304.25 823.195312 1305.121094 C 783.816406 1306.378906 755.839844 1294.761719 737.695312 1269.679688 C 712.054688 1234.238281 705.164062 1170.851562 717.777344 1086.351562 C 727.941406 1018.210938 747.097656 961.550781 748.324219 957.984375 C 749.476562 955.046875 749.972656 951.855469 749.730469 948.632812 C 749.113281 940.570312 744.574219 933.441406 737.585938 929.574219 C 723.515625 921.785156 707.351562 929.1875 682.398438 942.300781 C 680.292969 943.40625 677.671875 944.785156 676.964844 945.105469 C 674.789062 946.03125 672.785156 947.3125 671.035156 948.894531 C 612.601562 1001.789062 561.691406 1038.308594 515.398438 1060.539062 C 446.199219 1093.769531 393.308594 1092.871094 353.75 1057.738281 C 352.851562 1056.75 351.910156 1055.730469 350.9375 1054.671875 C 335.511719 1037.878906 316.3125 1016.988281 328.628906 974.359375 C 328.753906 973.921875 328.867188 973.476562 328.96875 973.03125 C 332.042969 959.039062 337.214844 944.03125 342.214844 929.519531 C 354.21875 894.671875 365.558594 861.761719 344.238281 842.621094 C 325.441406 825.808594 281.707031 781.328125 281.527344 731.421875 C 281.433594 704.441406 294.574219 678.609375 320.59375 654.621094 C 345.09375 638.601562 387.238281 633.230469 442.636719 639.078125 C 485.234375 643.570312 534.8125 654.359375 589.984375 671.140625 C 603.472656 675.910156 628.445312 677.660156 640.402344 662.460938 C 646.191406 655.101562 649.273438 642.640625 640.5625 629.738281 C 621.535156 601.570312 593.789062 576.699219 566.949219 552.640625 C 529.378906 518.96875 490.527344 484.148438 478.851562 442.589844 C 478.808594 442.441406 478.765625 442.289062 478.71875 442.140625 C 470.964844 416.710938 474.613281 387.011719 488.488281 362.699219 C 500.3125 341.980469 518.417969 327.671875 539.550781 322.300781 C 562.25 318.921875 586.480469 323.019531 612.109375 327.371094 C 626.367188 329.789062 641.097656 332.289062 656.15625 333.570312 C 686.601562 338.75 702.75 316.800781 717.027344 297.398438 C 731.402344 277.871094 747.675781 255.761719 782.847656 242.261719 C 827.292969 231.921875 860.007812 237.410156 882.820312 259.03125 C 911.085938 285.808594 925.667969 339.78125 924.996094 415.109375 C 924.421875 479.371094 913.144531 541.351562 908.328125 567.820312 C 907.378906 573.03125 906.695312 576.800781 906.3125 579.339844 C 905.5625 584.390625 906.65625 589.539062 909.390625 593.839844 C 912.796875 599.199219 918.433594 602.75 924.734375 603.519531 C 934.855469 604.75 940.035156 599.808594 947.871094 592.328125 C 1063.449219 481.941406 1163.730469 427.621094 1223 443.300781 C 1223.058594 443.308594 1223.128906 443.328125 1223.199219 443.351562 C 1237.578125 447 1283.601562 473.558594 1285.359375 508.558594 C 1285.429688 509.96875 1285.640625 511.371094 1285.988281 512.730469 C 1288.121094 521.109375 1283.429688 549.75 1280.328125 568.710938 C 1272.640625 615.648438 1266.53125 652.941406 1290.28125 666.488281 C 1308.648438 679.109375 1360.289062 715.28125 1368.898438 764.320312 C 1373.410156 790.039062 1365.621094 817.359375 1345.730469 845.558594 Z M 1410.660156 756.988281 C 1405.699219 728.691406 1391.050781 701.371094 1367.128906 675.78125 C 1349.710938 657.148438 1330.941406 643.089844 1315.988281 632.710938 C 1314.570312 622.011719 1319.269531 593.28125 1322.171875 575.558594 C 1326.910156 546.628906 1331.03125 521.46875 1327.589844 504.488281 C 1323.480469 448.808594 1263.789062 409.949219 1233.710938 402.269531 C 1185.089844 389.46875 1098.949219 402.148438 958.371094 525.21875 C 962.808594 494.421875 967.039062 455.550781 967.398438 415.488281 C 968.1875 326.839844 949.546875 263.839844 911.984375 228.25 C 878.214844 196.25 831.019531 187.191406 771.722656 201.308594 C 770.871094 201.519531 770.03125 201.769531 769.210938 202.078125 C 721.378906 219.960938 698.210938 251.429688 682.878906 272.261719 C 669.734375 290.121094 666.804688 292.449219 662.90625 291.699219 C 662.160156 291.558594 661.402344 291.460938 660.644531 291.398438 C 647.054688 290.289062 633.523438 287.988281 619.199219 285.558594 C 591.023438 280.78125 561.882812 275.839844 532.078125 280.539062 C 531.511719 280.628906 530.949219 280.75 530.390625 280.878906 C 497.441406 288.859375 469.480469 310.449219 451.65625 341.679688 C 432.144531 375.871094 427.082031 417.949219 438.09375 454.289062 C 453.164062 507.601562 496.621094 546.550781 538.648438 584.21875 C 553.863281 597.859375 568.582031 611.050781 581.402344 624.410156 C 531.921875 610.339844 486.824219 601.101562 447.089844 596.910156 C 379.707031 589.789062 328.710938 597.691406 295.507812 620.390625 C 294.703125 620.929688 293.941406 621.539062 293.222656 622.191406 C 257.183594 654.878906 238.980469 691.679688 239.125 731.570312 C 239.226562 759.710938 248.5625 788.539062 266.875 817.261719 C 282.117188 841.171875 300.546875 860.199219 313.953125 872.410156 C 314.289062 880.398438 307.03125 901.464844 302.125 915.703125 C 297.050781 930.425781 291.3125 947.085938 287.699219 963.257812 C 269.183594 1028.371094 302.035156 1064.128906 319.714844 1083.371094 C 320.863281 1084.609375 321.964844 1085.808594 322.996094 1086.960938 C 323.488281 1087.511719 324.011719 1088.03125 324.558594 1088.53125 C 353.480469 1114.640625 388.265625 1127.589844 427.921875 1127.03125 C 460.046875 1126.578125 495.652344 1117.070312 533.757812 1098.769531 C 582.96875 1075.140625 636.230469 1037.261719 696.503906 983.03125 C 693.613281 993.621094 690.339844 1006.378906 687.117188 1020.539062 C 670.03125 1095.679688 668.195312 1148.921875 669.667969 1180.359375 C 671.976562 1229.761719 683.910156 1268.988281 705.136719 1296.960938 C 730.652344 1330.589844 768.480469 1347.621094 817.640625 1347.621094 C 819.992188 1347.621094 822.367188 1347.578125 824.765625 1347.5 C 824.898438 1347.488281 825.03125 1347.488281 825.164062 1347.480469 C 848.785156 1346.269531 871.628906 1338.800781 893.058594 1325.269531 C 893.101562 1325.238281 893.140625 1325.210938 893.183594 1325.191406 C 921.667969 1306.921875 936.941406 1287.871094 948.09375 1273.949219 C 962.292969 1256.238281 963.320312 1255.679688 975.621094 1259.039062 C 976.214844 1259.199219 976.816406 1259.339844 977.425781 1259.449219 C 987.851562 1261.339844 998.0625 1264.128906 1008.878906 1267.089844 C 1043.808594 1276.640625 1083.410156 1287.46875 1131.101562 1264.269531 C 1173.738281 1243.53125 1198.640625 1214.398438 1205.109375 1177.710938 C 1210.730469 1145.769531 1201.75 1109.230469 1178.398438 1069.089844 C 1161.78125 1040.53125 1138.089844 1010.269531 1107.96875 979.171875 C 1100.910156 971.878906 1094.230469 965.027344 1087.96875 958.605469 C 1071.660156 941.855469 1054.988281 924.753906 1043.929688 912.179688 C 1052.53125 913.105469 1064.308594 914.730469 1080.410156 917.398438 C 1112.179688 922.667969 1175.03125 930.730469 1238.859375 925.550781 C 1303.679688 920.285156 1350.378906 902.78125 1377.648438 873.53125 C 1378.269531 872.859375 1378.839844 872.160156 1379.371094 871.421875 C 1406.761719 833.210938 1417.28125 794.710938 1410.660156 756.988281 "/>
</svg>
