<svg width="177" height="97" viewBox="0 0 177 97" fill="none" xmlns="http://www.w3.org/2000/svg">
<path opacity="0.96" d="M112.466 69.2705C117.504 70.3518 155.523 79.4823 171.354 52.5713C171.354 52.5713 157.801 63.3838 148.087 58.2178C138.492 53.172 123.74 32.7485 109.588 34.07C109.588 34.07 116.664 27.5826 116.064 23.618C115.465 19.6534 112.706 8.84098 100.473 14.0069C100.473 14.0069 97.5944 -3.53326 81.1634 2.35351L74.687 8.60071C74.687 8.60071 64.4926 3.79517 56.8168 9.2014C49.141 14.6076 51.4197 25.4201 51.4197 25.4201C51.4197 25.4201 42.6645 18.5722 34.7489 20.0138C26.8332 21.4555 21.1963 28.7839 21.676 35.2714C21.676 35.2714 1.52707 32.7485 1.52707 51.1297C1.52707 69.5108 21.9159 66.7476 21.9159 66.7476C21.9159 66.7476 36.0681 86.5705 52.739 78.0406C52.739 78.0406 51.0599 86.8107 57.5364 89.0934C64.0128 91.376 66.8913 89.0934 66.8913 89.0934C66.8913 89.0934 71.6886 97.6232 80.8036 95.1003C89.9186 92.5774 90.3984 82.8462 90.3984 82.8462C90.3984 82.8462 98.0742 87.4114 104.311 79.1219C110.787 70.9525 112.466 69.2705 112.466 69.2705Z" fill="url(#paint0_linear_1_18605)"/>
<path d="M107.669 33.9499C114.985 32.7485 119.303 24.8194 116.544 17.9715C113.666 10.6431 104.91 9.2014 99.1536 14.0069C99.7533 14.2472 100.473 14.4875 101.073 14.8479C101.912 -1.49091 79.8442 -5.69575 73.8475 9.08126C74.5671 8.84098 75.1668 8.48057 75.8864 8.24029C61.8541 -1.61105 43.9838 13.2861 51.2998 28.7839C51.8995 30.1055 54.2982 29.1444 53.8185 27.7027C48.4214 14.2472 62.2139 2.23338 74.5671 10.5229C75.4066 11.1236 76.2462 10.5229 76.606 9.68195C81.6432 -3.41312 99.5134 1.03199 98.9137 14.7278C98.9137 15.809 100.113 16.0493 100.833 15.5687C106.829 10.5229 115.105 14.968 114.985 22.4166C114.985 27.5826 111.507 30.586 107.189 32.7485C106.47 33.229 106.949 34.07 107.669 33.9499Z" fill="url(#paint1_linear_1_18605)"/>
<path d="M54.2982 75.8782C49.7407 82.4858 53.2188 89.9343 61.2544 91.0156C62.6936 91.2559 64.1328 91.2559 65.4521 90.6552C65.8119 90.535 66.5315 90.0545 66.7713 89.9343C68.6903 89.8142 66.1717 89.3336 67.4909 89.9343C69.6497 91.0156 70.8491 93.5385 73.2478 94.7399C75.5265 95.8211 78.1651 96.3017 80.6837 96.0614C84.8814 95.701 89.0791 93.1781 90.3984 89.0934C90.6382 88.2524 90.8781 83.4469 91.5977 83.0865C90.3984 83.6871 97.1147 84.5281 97.4745 84.5281C103.591 83.4469 105.99 78.6413 109.468 74.3164C114.745 67.4685 130.936 73.115 139.092 72.6344C154.563 71.6733 168.476 62.5428 176.271 49.3276C176.991 48.1262 175.432 47.1651 174.472 48.0061C166.557 54.7338 155.163 60.8609 144.968 54.9741C138.012 50.8894 133.455 43.4408 126.858 38.6353C117.863 32.0277 102.872 28.9041 95.3157 39.5964C92.4373 43.6811 91.8376 50.0484 93.9964 54.6137C95.9154 58.6984 100.953 60.981 105.15 62.0622C110.427 63.5039 116.904 61.9421 117.384 55.4546C117.863 49.2074 112.346 46.4443 107.069 48.9672C105.99 49.5679 106.949 51.1297 108.029 50.6491C115.824 47.1651 117.983 58.8185 110.667 60.5004C104.79 61.822 96.3951 56.8963 95.1957 51.3699C93.0369 42.1193 100.953 35.1513 109.708 34.911C126.259 34.4304 132.016 52.5713 145.208 58.338C156.122 63.1435 167.876 56.7762 176.031 49.688C175.432 49.2074 174.832 48.7269 174.232 48.3665C165.357 63.7442 148.926 72.0337 131.296 70.8323C126.259 70.4719 121.221 69.5108 116.184 68.9101C114.265 68.6698 112.586 68.3094 110.907 69.3907C109.108 70.4719 108.389 72.8747 107.309 74.5566C103.951 80.2031 98.314 85.8496 91.118 82.3656C90.6382 82.1253 90.0386 82.2455 89.9186 82.8462C89.319 85.7295 89.0791 89.6941 86.9203 91.9767C81.2834 98.1037 71.5687 94.4996 67.8507 88.2524C67.4909 87.7719 66.8913 87.7719 66.5315 88.2524C64.3726 91.2559 59.4553 89.9343 56.9367 88.2524C52.6191 85.3691 52.4991 81.0441 55.2576 76.8393C55.8573 75.758 54.7779 75.1573 54.2982 75.8782Z" fill="url(#paint2_linear_1_18605)"/>
<path d="M52.739 28.4235C45.1832 10.8833 20.4767 18.8125 19.877 36.3527C20.5966 35.8721 21.1963 35.2714 21.9159 34.7909C10.1624 30.2256 -1.11147 41.2783 0.0878723 53.172C0.687544 59.0588 4.52544 63.9845 9.68261 66.6275C14.2401 68.9101 18.6777 68.5497 23.595 68.0692C22.9953 67.5886 22.3957 67.2282 21.796 66.7476C28.8721 95.5808 81.4033 77.1997 71.5687 49.3276C69.29 42.72 62.4537 38.9957 55.6174 40.6776C45.3031 43.3207 42.6645 55.6949 51.0599 61.9421C51.8995 62.5428 53.2188 61.2213 52.6191 60.3803C48.9011 55.5748 47.222 50.529 52.4992 45.9637C54.2982 44.4019 56.2171 43.561 58.6158 43.561C64.4926 43.3207 68.2105 47.4054 69.17 52.9317C73.2478 75.0372 31.0309 89.3336 25.394 65.7865C25.2741 65.0657 24.4345 64.3449 23.595 64.465C16.5189 65.1858 9.32281 64.7053 5.36498 57.7373C-0.511799 47.5255 9.44275 34.07 21.0764 38.0346C22.0358 38.395 23.1153 37.4339 23.1153 36.4728C22.9953 29.1444 27.9126 21.8159 35.4685 20.4944C42.3047 19.293 48.5413 23.1374 52.2593 28.6638C52.4992 28.9041 52.859 28.6638 52.739 28.4235Z" fill="url(#paint3_linear_1_18605)"/>
<defs>
<linearGradient id="paint0_linear_1_18605" x1="32.7943" y1="-52.2939" x2="130.97" y2="141.173" gradientUnits="userSpaceOnUse">
<stop offset="0.0563867" stop-color="#DC1919"/>
<stop offset="0.9973" stop-color="#961414"/>
</linearGradient>
<linearGradient id="paint1_linear_1_18605" x1="50.7384" y1="16.9892" x2="116.509" y2="16.9892" gradientUnits="userSpaceOnUse">
<stop stop-color="#DB941F"/>
<stop offset="0.5795" stop-color="#FBD291"/>
<stop offset="1" stop-color="#FAC571"/>
</linearGradient>
<linearGradient id="paint2_linear_1_18605" x1="52.5127" y1="64.4413" x2="175.875" y2="64.4413" gradientUnits="userSpaceOnUse">
<stop stop-color="#DB941F"/>
<stop offset="0.5795" stop-color="#FBD291"/>
<stop offset="1" stop-color="#FAC571"/>
</linearGradient>
<linearGradient id="paint3_linear_1_18605" x1="1.73277" y1="49.9571" x2="71.4738" y2="49.9571" gradientUnits="userSpaceOnUse">
<stop stop-color="#DB941F"/>
<stop offset="0.5795" stop-color="#FBD291"/>
<stop offset="1" stop-color="#FAC571"/>
</linearGradient>
</defs>
</svg>
