<svg width="104" height="104" viewBox="0 0 104 104" fill="none" xmlns="http://www.w3.org/2000/svg">
<path opacity="0.5" d="M99.8027 47.6425C97.9394 47.6425 96.309 48.9207 95.7267 50.5475H65.7976C65.6811 49.0369 65.2153 47.5262 64.633 46.248L90.4862 31.3743C91.8837 32.5363 93.8634 32.7687 95.4938 31.8391C97.59 30.6771 98.2888 28.0045 97.0078 26.029C95.8432 23.9374 93.1647 23.2402 91.185 24.5184C89.5546 25.448 88.7394 27.3073 89.0888 29.0503L63.2355 43.924C62.3039 42.6458 61.2558 41.6 60.0912 40.7866L74.9976 14.9899C76.7444 15.3385 78.6077 14.5251 79.5394 12.8983C80.7039 10.8067 80.0052 8.25027 78.0254 7.08826C75.9292 5.92625 73.3672 6.62346 72.2027 8.59888C71.271 10.2257 71.5039 12.2011 72.6685 13.5955L57.7621 39.3922C56.3646 38.8112 54.9672 38.3464 53.4533 38.2302V8.36648C55.2001 7.78547 56.3647 6.15866 56.3647 4.29944C56.3647 1.97542 54.3849 0 52.0558 0C49.7267 0 47.7469 1.97542 47.7469 4.29944C47.7469 6.15866 49.0279 7.78547 50.6583 8.36648V38.2302C49.1444 38.3464 47.6305 38.8112 46.3494 39.3922L31.4431 13.4793C32.6077 12.0849 32.8406 10.1095 31.9089 8.48267C30.7444 6.39105 28.0659 5.69385 26.0861 6.97207C23.9899 8.13408 23.2912 10.8067 24.5722 12.7821C25.5038 14.4089 27.3671 15.2223 29.114 14.8737L44.0203 40.6704C42.7393 41.6 41.6912 42.6458 40.876 43.8078L14.9064 28.9341C15.2557 27.1911 14.4405 25.3318 12.8101 24.4022C10.7139 23.2402 8.15191 23.9374 6.98735 25.9128C5.82279 28.0045 6.52153 30.5609 8.50128 31.7229C10.1317 32.6525 12.1114 32.4201 13.5089 31.2581L39.3621 46.1318C38.7798 47.5263 38.314 48.9207 38.1975 50.4313H8.38482C7.80254 48.6883 6.17216 47.5262 4.30887 47.5262C1.97975 47.5262 0 49.5017 0 51.8257C0 54.1497 1.97975 56.1251 4.30887 56.1251C6.17216 56.1251 7.80254 54.8469 8.38482 53.2201H38.314C38.4304 54.7307 38.8963 56.2413 39.4785 57.5196L13.6253 72.3933C12.2279 71.2313 10.2481 70.9989 8.61774 71.9285C6.52153 73.0905 5.82279 75.7631 7.10381 77.7385C8.26837 79.8302 10.9469 80.5274 12.9266 79.2492C14.557 78.3195 15.3722 76.4603 15.0228 74.7173L40.7596 60.076C41.6912 61.3542 42.7393 62.4 43.9039 63.2134L28.9975 89.0101C27.2507 88.6615 25.3874 89.4749 24.4557 91.1017C23.2912 93.1933 23.9899 95.7497 25.9697 96.9117C28.0659 98.0737 30.6279 97.3765 31.7925 95.4011C32.7241 93.7743 32.4912 91.7989 31.3266 90.4044L46.233 64.6078C47.6305 65.1888 49.0279 65.6536 50.5419 65.7698V95.6335C48.795 96.2145 47.6305 97.8413 47.6305 99.7005C47.6305 102.025 49.6102 104 51.9393 104C54.2684 104 56.2482 102.025 56.2482 99.7005C56.2482 97.8413 54.9672 96.2145 53.3368 95.6335V65.7698C54.8507 65.6536 56.3647 65.1888 57.6457 64.6078L72.552 90.4044C71.3875 91.7989 71.1545 93.7743 72.0862 95.4011C73.2508 97.4927 75.9292 98.1899 77.909 96.9117C79.8887 95.6335 80.7039 93.0771 79.4229 91.1017C78.4913 89.4749 76.628 88.6615 74.8811 89.0101L59.9748 63.2134C61.2558 62.2838 62.3039 61.238 63.1191 60.076L88.9723 74.9497C88.6229 76.6927 89.4381 78.5519 91.0685 79.4816C93.1647 80.6436 95.7267 79.9464 96.8913 77.9709C98.0559 75.8793 97.3571 73.3229 95.3774 72.1609C93.747 71.2313 91.7672 71.4637 90.3698 72.6257L64.5166 57.7519C65.0988 56.3575 65.5647 54.9631 65.6811 53.4525H95.6103C96.1926 55.1955 97.8229 56.3575 99.6862 56.3575C102.015 56.3575 103.995 54.3821 103.995 52.0581C104.112 49.6179 102.132 47.6425 99.8027 47.6425ZM52.0558 61.238C46.9317 61.238 42.7393 57.0547 42.7393 51.9419C42.7393 46.829 46.9317 42.6458 52.0558 42.6458C57.1798 42.6458 61.3723 46.829 61.3723 51.9419C61.3723 57.0547 57.1798 61.238 52.0558 61.238Z" fill="#C15864"/>
</svg>
