<svg width="202" height="202" viewBox="0 0 202 202" fill="none" xmlns="http://www.w3.org/2000/svg">
<g clip-path="url(#clip0_106_3511)">
<path d="M146.42 53.1487L112.637 89.8838L150.849 57.6646L146.42 53.1487Z" fill="url(#paint0_radial_106_3511)"/>
<path d="M51.1514 144.335L89.3629 112.116L55.5804 148.938L51.1514 144.335Z" fill="url(#paint1_radial_106_3511)"/>
<path d="M167.002 99.2632L117.066 101.347L166.828 105.603L167.002 99.2632Z" fill="url(#paint2_radial_106_3511)"/>
<path d="M35.172 96.3972L84.9338 100.653L34.9983 102.737L35.172 96.3972Z" fill="url(#paint3_radial_106_3511)"/>
<path d="M148.938 146.42L112.116 112.637L144.335 150.849L148.938 146.42Z" fill="url(#paint4_radial_106_3511)"/>
<path d="M57.6646 51.1514L89.8838 89.3629L53.1487 55.5804L57.6646 51.1514Z" fill="url(#paint5_radial_106_3511)"/>
<path d="M102.737 167.002L100.653 117.066L96.3972 166.828L102.737 167.002Z" fill="url(#paint6_radial_106_3511)"/>
<path d="M105.603 35.172L101.347 84.9338L99.2632 34.9983L105.603 35.172Z" fill="url(#paint7_radial_106_3511)"/>
<path d="M198.787 62.4412L125.229 92.7498L202 72.0809L198.787 62.4412Z" fill="url(#paint8_radial_106_3511)"/>
<path d="M0 130.006L76.7704 109.25L3.21324 139.559L0 130.006Z" fill="url(#paint9_radial_106_3511)"/>
<path d="M197.397 142.859L123.927 112.29L192.881 151.978L197.397 142.859Z" fill="url(#paint10_radial_106_3511)"/>
<path d="M9.11869 50.0225L78.0731 89.7103L4.60278 59.1411L9.11869 50.0225Z" fill="url(#paint11_radial_106_3511)"/>
<path d="M139.559 198.787L109.25 125.229L130.006 202L139.559 198.787Z" fill="url(#paint12_radial_106_3511)"/>
<path d="M72.0809 0L92.7498 76.7704L62.4412 3.21324L72.0809 0Z" fill="url(#paint13_radial_106_3511)"/>
<path d="M59.1411 197.397L89.7103 123.927L50.0225 192.881L59.1411 197.397Z" fill="url(#paint14_radial_106_3511)"/>
<path d="M151.978 9.11869L112.29 78.0731L142.859 4.60278L151.978 9.11869Z" fill="url(#paint15_radial_106_3511)"/>
<path d="M112.898 104.821C109.597 104.734 106.037 101.174 106.037 101.174C106.037 101.174 109.858 97.7866 113.071 97.8735C116.371 97.9603 117.935 99.5235 117.848 101.521C117.848 103.345 116.198 104.908 112.898 104.821Z" fill="url(#paint16_radial_106_3511)"/>
<path d="M88.9286 104.213C92.2286 104.3 95.9629 100.913 95.9629 100.913C95.9629 100.913 92.3155 97.3525 89.1022 97.2657C85.8021 97.1788 84.1521 98.742 84.1521 100.653C84.0653 102.563 85.6285 104.126 88.9286 104.213Z" fill="url(#paint17_radial_106_3511)"/>
<path d="M106.732 112.116C104.474 109.771 104.474 104.647 104.474 104.647C104.474 104.647 109.597 104.908 111.855 107.253C114.113 109.598 114.113 111.856 112.724 113.158C111.247 114.548 108.99 114.461 106.732 112.116Z" fill="url(#paint18_radial_106_3511)"/>
<path d="M90.2312 94.7472C92.4891 97.092 97.6129 97.3525 97.6129 97.3525C97.6129 97.3525 97.6129 92.2287 95.355 89.8839C93.097 87.5391 90.8391 87.4522 89.4496 88.7549C87.9732 90.1444 87.9732 92.4024 90.2312 94.7472Z" fill="url(#paint19_radial_106_3511)"/>
<path d="M97.2656 112.898C97.3525 109.597 100.913 106.037 100.913 106.037C100.913 106.037 104.3 109.858 104.213 113.071C104.126 116.371 102.563 117.935 100.566 117.848C98.6551 117.848 97.1788 116.198 97.2656 112.898Z" fill="url(#paint20_radial_106_3511)"/>
<path d="M97.7866 88.9286C97.6997 92.2286 101.087 95.9629 101.087 95.9629C101.087 95.9629 104.647 92.3155 104.734 89.1022C104.821 85.8021 103.258 84.1521 101.347 84.1521C99.5234 84.0653 97.8734 85.6285 97.7866 88.9286Z" fill="url(#paint21_radial_106_3511)"/>
<path d="M89.8839 106.732C92.2287 104.474 97.3526 104.474 97.3526 104.474C97.3526 104.474 97.092 109.597 94.7472 111.855C92.4024 114.113 90.1445 114.113 88.8418 112.724C87.4523 111.247 87.5392 108.99 89.8839 106.732Z" fill="url(#paint22_radial_106_3511)"/>
<path d="M107.253 90.2312C104.908 92.4891 104.647 97.6129 104.647 97.6129C104.647 97.6129 109.771 97.6129 112.116 95.355C114.461 93.097 114.548 90.8391 113.245 89.4496C111.856 87.9732 109.684 87.9732 107.253 90.2312Z" fill="url(#paint23_radial_106_3511)"/>
<path d="M158.578 51.5855C155.538 51.6723 153.02 49.4144 152.933 46.3748C152.846 43.3353 155.104 40.8168 158.144 40.73C161.183 40.6431 163.702 42.9011 163.788 45.9406C163.962 48.8933 161.617 51.4118 158.578 51.5855Z" fill="url(#paint24_radial_106_3511)"/>
<path d="M43.4222 161.878C40.3827 161.965 37.8642 159.707 37.7773 156.667C37.6905 153.628 39.9484 151.109 42.988 151.022C46.0275 150.936 48.546 153.194 48.6329 156.233C48.7197 159.186 46.3749 161.704 43.4222 161.878Z" fill="url(#paint25_radial_106_3511)"/>
<path d="M106.558 25.1849C104.561 27.4429 101.087 27.5297 98.8288 25.5323C96.5708 23.5349 96.484 20.0611 98.4814 17.8032C100.479 15.5452 103.953 15.4584 106.211 17.4558C108.382 19.54 108.555 23.0138 106.558 25.1849Z" fill="url(#paint26_radial_106_3511)"/>
<path d="M103.084 184.718C101.087 186.976 97.6131 187.063 95.3552 185.065C93.0972 183.068 93.0104 179.594 95.0078 177.336C97.0052 175.078 100.479 174.991 102.737 176.989C104.995 178.986 105.082 182.46 103.084 184.718Z" fill="url(#paint27_radial_106_3511)"/>
<path d="M51.0645 43.4221C51.1514 46.4616 48.8934 48.9801 45.8539 49.067C42.8143 49.1538 40.2958 46.8958 40.209 43.8563C40.1221 40.8167 42.3801 38.2983 45.4196 38.2114C48.3723 38.1246 50.9777 40.3825 51.0645 43.4221Z" fill="url(#paint28_radial_106_3511)"/>
<path d="M161.357 158.665C161.444 161.704 159.186 164.223 156.146 164.309C153.107 164.396 150.588 162.138 150.501 159.099C150.414 156.059 152.672 153.541 155.712 153.454C158.751 153.28 161.27 155.625 161.357 158.665Z" fill="url(#paint29_radial_106_3511)"/>
<path d="M24.7506 95.5289C27.0086 97.5263 27.0954 101 25.098 103.258C23.1006 105.516 19.6268 105.603 17.3688 103.605C15.1109 101.608 15.024 98.1342 17.0214 95.8762C19.1057 93.6183 22.4926 93.4446 24.7506 95.5289Z" fill="url(#paint30_radial_106_3511)"/>
<path d="M184.197 99.0025C186.455 101 186.542 104.474 184.544 106.732C182.547 108.99 179.073 109.076 176.815 107.079C174.557 105.082 174.47 101.608 176.468 99.3499C178.552 97.0919 181.939 96.9182 184.197 99.0025Z" fill="url(#paint31_radial_106_3511)"/>
</g>
<defs>
<radialGradient id="paint0_radial_106_3511" cx="0" cy="0" r="1" gradientUnits="userSpaceOnUse" gradientTransform="translate(100.076 100.245) scale(158.002 158.002)">
<stop offset="0.1732" stop-color="#FFD79E"/>
<stop offset="1" stop-color="#FDD8A1" stop-opacity="0"/>
</radialGradient>
<radialGradient id="paint1_radial_106_3511" cx="0" cy="0" r="1" gradientUnits="userSpaceOnUse" gradientTransform="translate(100.076 100.245) scale(158.002 158.002)">
<stop offset="0.1732" stop-color="#FFD79E"/>
<stop offset="1" stop-color="#FDD8A1" stop-opacity="0"/>
</radialGradient>
<radialGradient id="paint2_radial_106_3511" cx="0" cy="0" r="1" gradientUnits="userSpaceOnUse" gradientTransform="translate(100.076 100.245) scale(158.001 158.001)">
<stop offset="0.1732" stop-color="#FFD79E"/>
<stop offset="1" stop-color="#FDD8A1" stop-opacity="0"/>
</radialGradient>
<radialGradient id="paint3_radial_106_3511" cx="0" cy="0" r="1" gradientUnits="userSpaceOnUse" gradientTransform="translate(100.076 100.245) scale(158.002 158.002)">
<stop offset="0.1732" stop-color="#FFD79E"/>
<stop offset="1" stop-color="#FDD8A1" stop-opacity="0"/>
</radialGradient>
<radialGradient id="paint4_radial_106_3511" cx="0" cy="0" r="1" gradientUnits="userSpaceOnUse" gradientTransform="translate(100.076 100.245) scale(158.001 158.002)">
<stop offset="0.1732" stop-color="#FFD79E"/>
<stop offset="1" stop-color="#FDD8A1" stop-opacity="0"/>
</radialGradient>
<radialGradient id="paint5_radial_106_3511" cx="0" cy="0" r="1" gradientUnits="userSpaceOnUse" gradientTransform="translate(100.076 100.245) scale(158.002 158.002)">
<stop offset="0.1732" stop-color="#FFD79E"/>
<stop offset="1" stop-color="#FDD8A1" stop-opacity="0"/>
</radialGradient>
<radialGradient id="paint6_radial_106_3511" cx="0" cy="0" r="1" gradientUnits="userSpaceOnUse" gradientTransform="translate(100.076 100.245) scale(158.002 158.002)">
<stop offset="0.1732" stop-color="#FFD79E"/>
<stop offset="1" stop-color="#FDD8A1" stop-opacity="0"/>
</radialGradient>
<radialGradient id="paint7_radial_106_3511" cx="0" cy="0" r="1" gradientUnits="userSpaceOnUse" gradientTransform="translate(100.076 100.245) scale(158.001 158.002)">
<stop offset="0.1732" stop-color="#FFD79E"/>
<stop offset="1" stop-color="#FDD8A1" stop-opacity="0"/>
</radialGradient>
<radialGradient id="paint8_radial_106_3511" cx="0" cy="0" r="1" gradientUnits="userSpaceOnUse" gradientTransform="translate(100.076 100.245) scale(158.001 158.001)">
<stop offset="0.1732" stop-color="#FFD79E"/>
<stop offset="1" stop-color="#FDD8A1" stop-opacity="0"/>
</radialGradient>
<radialGradient id="paint9_radial_106_3511" cx="0" cy="0" r="1" gradientUnits="userSpaceOnUse" gradientTransform="translate(100.076 100.245) scale(158.002 158.002)">
<stop offset="0.1732" stop-color="#FFD79E"/>
<stop offset="1" stop-color="#FDD8A1" stop-opacity="0"/>
</radialGradient>
<radialGradient id="paint10_radial_106_3511" cx="0" cy="0" r="1" gradientUnits="userSpaceOnUse" gradientTransform="translate(100.076 100.245) scale(158.002 158.002)">
<stop offset="0.1732" stop-color="#FFD79E"/>
<stop offset="1" stop-color="#FDD8A1" stop-opacity="0"/>
</radialGradient>
<radialGradient id="paint11_radial_106_3511" cx="0" cy="0" r="1" gradientUnits="userSpaceOnUse" gradientTransform="translate(100.076 100.245) scale(158.002 158.002)">
<stop offset="0.1732" stop-color="#FFD79E"/>
<stop offset="1" stop-color="#FDD8A1" stop-opacity="0"/>
</radialGradient>
<radialGradient id="paint12_radial_106_3511" cx="0" cy="0" r="1" gradientUnits="userSpaceOnUse" gradientTransform="translate(100.076 100.245) scale(158.001 158.001)">
<stop offset="0.1732" stop-color="#FFD79E"/>
<stop offset="1" stop-color="#FDD8A1" stop-opacity="0"/>
</radialGradient>
<radialGradient id="paint13_radial_106_3511" cx="0" cy="0" r="1" gradientUnits="userSpaceOnUse" gradientTransform="translate(100.076 100.245) scale(158.002 158.002)">
<stop offset="0.1732" stop-color="#FFD79E"/>
<stop offset="1" stop-color="#FDD8A1" stop-opacity="0"/>
</radialGradient>
<radialGradient id="paint14_radial_106_3511" cx="0" cy="0" r="1" gradientUnits="userSpaceOnUse" gradientTransform="translate(100.076 100.245) scale(158.002)">
<stop offset="0.1732" stop-color="#FFD79E"/>
<stop offset="1" stop-color="#FDD8A1" stop-opacity="0"/>
</radialGradient>
<radialGradient id="paint15_radial_106_3511" cx="0" cy="0" r="1" gradientUnits="userSpaceOnUse" gradientTransform="translate(100.076 100.245) scale(158.002)">
<stop offset="0.1732" stop-color="#FFD79E"/>
<stop offset="1" stop-color="#FDD8A1" stop-opacity="0"/>
</radialGradient>
<radialGradient id="paint16_radial_106_3511" cx="0" cy="0" r="1" gradientUnits="userSpaceOnUse" gradientTransform="translate(100.087 100.245) scale(157.911 157.911)">
<stop offset="0.1732" stop-color="#FFD79E"/>
<stop offset="1" stop-color="#FDD8A1" stop-opacity="0"/>
</radialGradient>
<radialGradient id="paint17_radial_106_3511" cx="0" cy="0" r="1" gradientUnits="userSpaceOnUse" gradientTransform="translate(100.076 100.245) scale(158.002 158.002)">
<stop offset="0.1732" stop-color="#FFD79E"/>
<stop offset="1" stop-color="#FDD8A1" stop-opacity="0"/>
</radialGradient>
<radialGradient id="paint18_radial_106_3511" cx="0" cy="0" r="1" gradientUnits="userSpaceOnUse" gradientTransform="translate(100.076 100.245) scale(158.002 158.002)">
<stop offset="0.1732" stop-color="#FFD79E"/>
<stop offset="1" stop-color="#FDD8A1" stop-opacity="0"/>
</radialGradient>
<radialGradient id="paint19_radial_106_3511" cx="0" cy="0" r="1" gradientUnits="userSpaceOnUse" gradientTransform="translate(100.076 100.245) scale(158.002 158.003)">
<stop offset="0.1732" stop-color="#FFD79E"/>
<stop offset="1" stop-color="#FDD8A1" stop-opacity="0"/>
</radialGradient>
<radialGradient id="paint20_radial_106_3511" cx="0" cy="0" r="1" gradientUnits="userSpaceOnUse" gradientTransform="translate(100.076 100.245) scale(158.001 158.001)">
<stop offset="0.1732" stop-color="#FFD79E"/>
<stop offset="1" stop-color="#FDD8A1" stop-opacity="0"/>
</radialGradient>
<radialGradient id="paint21_radial_106_3511" cx="0" cy="0" r="1" gradientUnits="userSpaceOnUse" gradientTransform="translate(100.076 100.245) scale(158.001 158.001)">
<stop offset="0.1732" stop-color="#FFD79E"/>
<stop offset="1" stop-color="#FDD8A1" stop-opacity="0"/>
</radialGradient>
<radialGradient id="paint22_radial_106_3511" cx="0" cy="0" r="1" gradientUnits="userSpaceOnUse" gradientTransform="translate(100.076 100.245) scale(158.002 158.002)">
<stop offset="0.1732" stop-color="#FFD79E"/>
<stop offset="1" stop-color="#FDD8A1" stop-opacity="0"/>
</radialGradient>
<radialGradient id="paint23_radial_106_3511" cx="0" cy="0" r="1" gradientUnits="userSpaceOnUse" gradientTransform="translate(100.076 100.245) scale(158.001 158.001)">
<stop offset="0.1732" stop-color="#FFD79E"/>
<stop offset="1" stop-color="#FDD8A1" stop-opacity="0"/>
</radialGradient>
<radialGradient id="paint24_radial_106_3511" cx="0" cy="0" r="1" gradientUnits="userSpaceOnUse" gradientTransform="translate(100.076 100.245) scale(158.001 158.001)">
<stop offset="0.1732" stop-color="#FFD79E"/>
<stop offset="1" stop-color="#FDD8A1" stop-opacity="0"/>
</radialGradient>
<radialGradient id="paint25_radial_106_3511" cx="0" cy="0" r="1" gradientUnits="userSpaceOnUse" gradientTransform="translate(100.076 100.245) scale(158.001 158.001)">
<stop offset="0.1732" stop-color="#FFD79E"/>
<stop offset="1" stop-color="#FDD8A1" stop-opacity="0"/>
</radialGradient>
<radialGradient id="paint26_radial_106_3511" cx="0" cy="0" r="1" gradientUnits="userSpaceOnUse" gradientTransform="translate(100.076 100.245) scale(158.002 158.002)">
<stop offset="0.1732" stop-color="#FFD79E"/>
<stop offset="1" stop-color="#FDD8A1" stop-opacity="0"/>
</radialGradient>
<radialGradient id="paint27_radial_106_3511" cx="0" cy="0" r="1" gradientUnits="userSpaceOnUse" gradientTransform="translate(100.076 100.245) scale(158.002 158.001)">
<stop offset="0.1732" stop-color="#FFD79E"/>
<stop offset="1" stop-color="#FDD8A1" stop-opacity="0"/>
</radialGradient>
<radialGradient id="paint28_radial_106_3511" cx="0" cy="0" r="1" gradientUnits="userSpaceOnUse" gradientTransform="translate(100.076 100.245) scale(158.002 158.002)">
<stop offset="0.1732" stop-color="#FFD79E"/>
<stop offset="1" stop-color="#FDD8A1" stop-opacity="0"/>
</radialGradient>
<radialGradient id="paint29_radial_106_3511" cx="0" cy="0" r="1" gradientUnits="userSpaceOnUse" gradientTransform="translate(100.076 100.245) scale(158.002 158.002)">
<stop offset="0.1732" stop-color="#FFD79E"/>
<stop offset="1" stop-color="#FDD8A1" stop-opacity="0"/>
</radialGradient>
<radialGradient id="paint30_radial_106_3511" cx="0" cy="0" r="1" gradientUnits="userSpaceOnUse" gradientTransform="translate(100.076 100.245) scale(158.002 158.002)">
<stop offset="0.1732" stop-color="#FFD79E"/>
<stop offset="1" stop-color="#FDD8A1" stop-opacity="0"/>
</radialGradient>
<radialGradient id="paint31_radial_106_3511" cx="0" cy="0" r="1" gradientUnits="userSpaceOnUse" gradientTransform="translate(100.076 100.245) scale(158.002 158.002)">
<stop offset="0.1732" stop-color="#FFD79E"/>
<stop offset="1" stop-color="#FDD8A1" stop-opacity="0"/>
</radialGradient>
<clipPath id="clip0_106_3511">
<rect width="202" height="202" fill="white"/>
</clipPath>
</defs>
</svg>
